<svg width="26" height="12" viewBox="0 0 26 12" fill="none" xmlns="http://www.w3.org/2000/svg">
<path opacity="0.35" fill-rule="evenodd" clip-rule="evenodd" d="M3.62397 0.833344C2.58343 0.833344 2.17197 0.910336 1.74727 1.13043C1.38871 1.31624 1.11041 1.58591 0.918651 1.93335C0.691517 2.34488 0.612061 2.74358 0.612061 3.75186V8.24816C0.612061 9.25644 0.691517 9.65514 0.918651 10.0667C1.11041 10.4141 1.38871 10.6838 1.74727 10.8696C2.17197 11.0897 2.58343 11.1667 3.62397 11.1667H19.2722C20.3127 11.1667 20.7241 11.0897 21.1489 10.8696C21.5074 10.6838 21.7857 10.4141 21.9775 10.0667C22.2046 9.65514 22.2841 9.25644 22.2841 8.24816V3.75186C22.2841 2.74358 22.2046 2.34488 21.9775 1.93335C21.7857 1.58591 21.5074 1.31624 21.1489 1.13043C20.7241 0.910336 20.3127 0.833344 19.2722 0.833344H3.62397Z" stroke="black"/>
<path opacity="0.4" d="M23.832 4V8C24.6625 7.66122 25.2026 6.87313 25.2026 6C25.2026 5.12687 24.6625 4.33878 23.832 4Z" fill="black"/>
<path d="M3.92399 2.33334H18.9721C19.5854 2.33334 19.8079 2.39523 20.0321 2.51143C20.2563 2.62764 20.4323 2.79816 20.5522 3.01545C20.6722 3.23273 20.736 3.44825 20.736 4.0426V7.95742C20.736 8.55177 20.6722 8.76729 20.5522 8.98457C20.4323 9.20186 20.2563 9.37238 20.0321 9.48859C19.8079 9.60479 19.5854 9.66668 18.9721 9.66668H3.92399C3.31062 9.66668 3.0882 9.60479 2.86396 9.48859C2.63973 9.37238 2.46374 9.20186 2.34382 8.98457C2.2239 8.76729 2.16003 8.55177 2.16003 7.95742V4.0426C2.16003 3.44825 2.2239 3.23273 2.34382 3.01545C2.46374 2.79816 2.63973 2.62764 2.86396 2.51143C3.0882 2.39523 3.31062 2.33334 3.92399 2.33334Z" fill="black"/>
</svg>
