<svg width="18" height="12" viewBox="0 0 18 12" fill="none" xmlns="http://www.w3.org/2000/svg">
<path d="M1.43996 7.33332H2.47196C3.04192 7.33332 3.50396 7.78104 3.50396 8.33332V10.3333C3.50396 10.8856 3.04192 11.3333 2.47196 11.3333H1.43996C0.870001 11.3333 0.407959 10.8856 0.407959 10.3333V8.33332C0.407959 7.78104 0.870001 7.33332 1.43996 7.33332ZM6.25595 5.33332H7.28795C7.85791 5.33332 8.31995 5.78104 8.31995 6.33332V10.3333C8.31995 10.8856 7.85791 11.3333 7.28795 11.3333H6.25595C5.68599 11.3333 5.22395 10.8856 5.22395 10.3333V6.33332C5.22395 5.78104 5.68599 5.33332 6.25595 5.33332ZM11.072 2.99999H12.104C12.6739 2.99999 13.136 3.4477 13.136 3.99999V10.3333C13.136 10.8856 12.6739 11.3333 12.104 11.3333H11.072C10.502 11.3333 10.04 10.8856 10.04 10.3333V3.99999C10.04 3.4477 10.502 2.99999 11.072 2.99999ZM15.888 0.666656H16.92C17.4899 0.666656 17.952 1.11437 17.952 1.66666V10.3333C17.952 10.8856 17.4899 11.3333 16.92 11.3333H15.888C15.318 11.3333 14.856 10.8856 14.856 10.3333V1.66666C14.856 1.11437 15.318 0.666656 15.888 0.666656Z" fill="black"/>
</svg>
