<svg width="200" height="200" viewBox="0 0 200 200" fill="none" xmlns="http://www.w3.org/2000/svg">
<rect x="1" y="1" width="198" height="198" rx="99" stroke="#6B7DF4" stroke-width="2"/>
<path d="M100 65.625C97.5136 65.625 95.129 66.6127 93.3709 68.3709C91.6127 70.129 90.625 72.5136 90.625 75V100C90.625 102.486 91.6127 104.871 93.3709 106.629C95.129 108.387 97.5136 109.375 100 109.375C102.486 109.375 104.871 108.387 106.629 106.629C108.387 104.871 109.375 102.486 109.375 100V75C109.375 72.5136 108.387 70.129 106.629 68.3709C104.871 66.6127 102.486 65.625 100 65.625Z" stroke="#343333" stroke-linecap="round" stroke-linejoin="round"/>
<path d="M121.875 93.75V100C121.875 105.802 119.57 111.366 115.468 115.468C111.366 119.57 105.802 121.875 100 121.875C94.1984 121.875 88.6344 119.57 84.532 115.468C80.4297 111.366 78.125 105.802 78.125 100V93.75" stroke="#343333" stroke-linecap="round" stroke-linejoin="round"/>
<path d="M100 121.875V134.375" stroke="#343333" stroke-linecap="round" stroke-linejoin="round"/>
<path d="M87.5 134.375H112.5" stroke="#343333" stroke-linecap="round" stroke-linejoin="round"/>
</svg>
