<svg width="40" height="40" viewBox="0 0 40 40" fill="none" xmlns="http://www.w3.org/2000/svg">
<rect width="40" height="40" rx="20" fill="#D1E7F9" fill-opacity="0.7"/>
<path d="M24.6875 20.9375C24.6875 21.8646 24.4126 22.7709 23.8975 23.5417C23.3824 24.3126 22.6504 24.9134 21.7938 25.2682C20.9373 25.623 19.9948 25.7158 19.0855 25.5349C18.1762 25.3541 17.341 24.9076 16.6854 24.2521C16.0299 23.5965 15.5834 22.7613 15.4026 21.852C15.2217 20.9427 15.3145 20.0002 15.6693 19.1437C16.0241 18.2871 16.6249 17.5551 17.3958 17.04C18.1666 16.5249 19.0729 16.25 20 16.25H22.8979L21.2177 17.9307L21.875 18.5938L24.6875 15.7812L21.875 12.9688L21.2177 13.6316L22.8993 15.3125H20C18.8875 15.3125 17.7999 15.6424 16.8749 16.2605C15.9499 16.8786 15.2289 17.7571 14.8032 18.7849C14.3774 19.8127 14.266 20.9437 14.4831 22.0349C14.7001 23.126 15.2359 24.1283 16.0225 24.915C16.8092 25.7016 17.8115 26.2374 18.9026 26.4544C19.9938 26.6715 21.1248 26.5601 22.1526 26.1343C23.1804 25.7086 24.0589 24.9876 24.677 24.0626C25.2951 23.1376 25.625 22.05 25.625 20.9375H24.6875Z" fill="#4058FA"/>
</svg>
