<svg width="24" height="24" viewBox="0 0 24 24" fill="none" xmlns="http://www.w3.org/2000/svg">
<g clip-path="url(#clip0_31_108)">
<path fill-rule="evenodd" clip-rule="evenodd" d="M13.2857 1.28571C13.2857 0.575633 12.71 0 11.9999 0C11.2899 0 10.7142 0.575633 10.7142 1.28571V22.7143C10.7142 23.4243 11.2899 24 11.9999 24C12.71 24 13.2857 23.4243 13.2857 22.7143V1.28571ZM6.53566 3.98897C7.24574 3.98897 7.82138 4.56461 7.82138 5.27469V18.7253C7.82138 19.4354 7.24574 20.011 6.53566 20.011C5.82559 20.011 5.24995 19.4354 5.24995 18.7253V5.27469C5.24995 4.56461 5.82559 3.98897 6.53566 3.98897ZM1.49995 8.19225C2.21002 8.19225 2.78566 8.76787 2.78566 9.47796V14.5219C2.78566 15.232 2.21002 15.8076 1.49995 15.8076C0.789867 15.8076 0.214233 15.232 0.214233 14.5219V9.47796C0.214233 8.76787 0.789867 8.19225 1.49995 8.19225ZM17.4642 3.98897C18.1743 3.98897 18.7499 4.56461 18.7499 5.27469V18.7253C18.7499 19.4354 18.1743 20.011 17.4642 20.011C16.7542 20.011 16.1785 19.4354 16.1785 18.7253V5.27469C16.1785 4.56461 16.7542 3.98897 17.4642 3.98897ZM23.7857 9.47796C23.7857 8.76787 23.21 8.19225 22.4999 8.19225C21.7899 8.19225 21.2142 8.76787 21.2142 9.47796V14.5219C21.2142 15.232 21.7899 15.8076 22.4999 15.8076C23.21 15.8076 23.7857 15.232 23.7857 14.5219V9.47796Z" fill="#403E3E"/>
</g>
<defs>
<clipPath id="clip0_31_108">
<rect width="24" height="24" fill="white"/>
</clipPath>
</defs>
</svg>
