<svg width="241" height="240" viewBox="0 0 241 240" fill="none" xmlns="http://www.w3.org/2000/svg">
<g clip-path="url(#clip0_4_6)">
<path opacity="0.1" d="M186.608 48.0801C166.018 47.2372 146.392 39.4067 127.679 30.8412C108.967 22.2758 90.4205 12.7837 70.3126 8.24499C57.3843 5.3225 42.599 4.91147 32.1843 13.0763C22.1599 20.9312 18.9219 34.4917 17.1802 47.0734C15.8702 56.5411 15.1103 66.5033 18.6912 75.3684C21.184 81.5199 25.6078 86.6926 28.6684 92.5863C39.3138 113.093 31.788 138.381 20.2496 158.421C14.8382 167.826 8.56038 176.774 4.38501 186.775C0.209652 196.776 -1.72426 208.232 1.93066 218.431C5.55305 228.533 14.1817 236.134 23.5319 241.473C42.5222 252.31 64.8982 255.41 86.7183 257.187C135.019 261.077 183.58 259.392 232.007 257.706C249.93 257.079 267.933 256.448 285.563 253.177C295.353 251.363 305.464 248.485 312.572 241.54C321.594 232.72 323.833 217.79 317.786 206.731C307.643 188.186 279.601 183.577 272.51 163.674C268.61 152.719 272.617 140.513 278.288 130.352C290.451 108.557 310.842 89.434 311.916 64.5178C312.655 47.4044 302.852 30.27 287.695 22.1713C271.809 13.6755 249.779 14.7483 238.06 28.7895C225.993 43.2557 204.785 48.8221 186.608 48.0801Z" fill="#1D2999"/>
<path d="M71.6347 252.554C71.6347 252.554 55.3709 238.07 52.2985 219.647C51.0526 211.909 47.7106 204.856 42.7738 199.545C40.4122 197.046 37.8614 194.808 35.1535 192.857" stroke="#535461" stroke-width="2" stroke-miterlimit="10"/>
<path d="M33.1634 181.251C34.5887 183.522 35.2333 193.146 35.2333 193.146C35.2333 193.146 27.613 189.61 26.1847 187.343C25.4989 186.253 25.2088 184.886 25.3782 183.544C25.5476 182.202 26.1627 180.994 27.0881 180.186C28.0135 179.378 29.1735 179.037 30.3128 179.236C31.4522 179.436 32.4775 180.16 33.1634 181.251Z" fill="#6C63FF"/>
<path d="M46.8309 188.802C46.9787 191.62 43.0843 200.113 43.0843 200.113C43.0843 200.113 38.3146 192.261 38.1637 189.443C38.1064 188.1 38.5007 186.784 39.2613 185.781C40.0219 184.777 41.0875 184.167 42.2272 184.083C43.3668 183.999 44.4888 184.447 45.35 185.33C46.2111 186.213 46.7421 187.461 46.8279 188.802H46.8309Z" fill="#6C63FF"/>
<path d="M60.0785 210.51C59.0021 213.032 51.9968 218.048 51.9968 218.048C51.9968 218.048 51.2487 208.434 52.3251 205.912C52.8549 204.726 53.7589 203.833 54.8424 203.424C55.9259 203.015 57.1023 203.124 58.1185 203.726C59.1347 204.329 59.9094 205.378 60.276 206.646C60.6426 207.915 60.5716 209.303 60.0785 210.51Z" fill="#6C63FF"/>
<path d="M66.9655 229.585C66.2647 232.284 60.0815 238.621 60.0815 238.621C60.0815 238.621 57.9612 229.296 58.6621 226.593C58.9989 225.296 59.7594 224.209 60.7761 223.573C61.7929 222.936 62.9827 222.801 64.0838 223.198C65.1849 223.595 66.1071 224.491 66.6475 225.689C67.1879 226.886 67.3023 228.288 66.9655 229.585Z" fill="#6C63FF"/>
<path d="M36.0347 206.94C38.4003 207.316 45.8787 203.338 45.8787 203.338C45.8787 203.338 39.5684 197.18 37.1909 196.804C36.0498 196.623 34.8945 196.984 33.9792 197.806C33.064 198.629 32.4636 199.847 32.3103 201.191C32.157 202.535 32.4632 203.896 33.1617 204.974C33.8601 206.052 34.8936 206.759 36.0347 206.94Z" fill="#6C63FF"/>
<path d="M44.3292 229.132C46.6948 228.655 52.8071 222.228 52.8071 222.228C52.8071 222.228 45.2193 218.578 42.8566 219.055C42.2909 219.164 41.7492 219.404 41.2627 219.761C40.7762 220.119 40.3546 220.586 40.0222 221.136C39.6898 221.686 39.4532 222.308 39.326 222.967C39.1988 223.625 39.1836 224.306 39.2813 224.972C39.3789 225.637 39.5874 226.273 39.8948 226.843C40.2022 227.413 40.6024 227.906 41.0723 228.293C41.5421 228.679 42.0724 228.953 42.6324 229.097C43.1924 229.241 43.7711 229.253 44.3351 229.132H44.3292Z" fill="#6C63FF"/>
<path d="M54.9007 249.401C57.2988 249.401 64.2479 244.284 64.2479 244.284C64.2479 244.284 57.2959 239.174 54.8977 239.174C53.7464 239.174 52.6423 239.713 51.8282 240.672C51.0141 241.631 50.5568 242.932 50.5568 244.288C50.5568 245.644 51.0141 246.945 51.8282 247.904C52.6423 248.863 53.7464 249.401 54.8977 249.401H54.9007Z" fill="#6C63FF"/>
<path d="M229.63 127.284C229.63 127.284 239.655 106.366 254.765 100.34C261.11 97.858 266.601 93.0192 270.414 86.5498C272.202 83.4569 273.745 80.1769 275.024 76.7512" stroke="#535461" stroke-width="2" stroke-miterlimit="10"/>
<path d="M248.339 118.784C245.974 118.325 239.835 111.933 239.835 111.933C239.835 111.933 247.402 108.219 249.765 108.679C250.902 108.9 251.918 109.643 252.59 110.746C253.262 111.849 253.534 113.221 253.347 114.561C253.16 115.9 252.529 117.098 251.593 117.889C250.656 118.68 249.491 119.001 248.354 118.781L248.339 118.784Z" fill="#6C63FF"/>
<path d="M230.077 107.331C230.396 110.118 235.624 117.562 235.624 117.562C235.624 117.562 238.998 108.766 238.679 105.969C238.615 105.292 238.438 104.636 238.156 104.04C237.874 103.444 237.494 102.921 237.038 102.501C236.582 102.081 236.06 101.773 235.501 101.594C234.942 101.415 234.359 101.37 233.786 101.461C233.212 101.552 232.659 101.777 232.161 102.123C231.662 102.469 231.227 102.929 230.882 103.476C230.536 104.023 230.287 104.646 230.148 105.308C230.01 105.97 229.986 106.658 230.077 107.331Z" fill="#6C63FF"/>
<path opacity="0.25" d="M248.339 118.784C245.974 118.325 239.835 111.933 239.835 111.933C239.835 111.933 247.402 108.219 249.765 108.679C250.902 108.9 251.918 109.643 252.59 110.746C253.262 111.849 253.534 113.221 253.347 114.561C253.16 115.9 252.529 117.098 251.593 117.889C250.656 118.68 249.491 119.001 248.354 118.781L248.339 118.784Z" fill="black"/>
<path opacity="0.25" d="M230.077 107.331C230.396 110.118 235.624 117.562 235.624 117.562C235.624 117.562 238.998 108.766 238.679 105.969C238.615 105.292 238.438 104.636 238.156 104.04C237.874 103.444 237.494 102.921 237.038 102.501C236.582 102.081 236.06 101.773 235.501 101.594C234.942 101.415 234.359 101.37 233.786 101.461C233.212 101.552 232.659 101.777 232.161 102.123C231.662 102.469 231.227 102.929 230.882 103.476C230.536 104.023 230.287 104.646 230.148 105.308C230.01 105.97 229.986 106.658 230.077 107.331Z" fill="black"/>
<path d="M230.207 126.869C230.207 126.869 232.176 102.96 243.904 90.2456C248.85 84.9468 252.206 77.9022 253.467 70.1678C254.041 66.4909 254.327 62.7597 254.322 59.0212" stroke="#535461" stroke-width="2" stroke-miterlimit="10"/>
<path d="M244.386 110.167C242.065 110.863 234.246 107.983 234.246 107.983C234.246 107.983 239.885 100.978 242.206 100.267C243.321 99.9266 244.505 100.122 245.497 100.809C246.489 101.497 247.209 102.62 247.498 103.933C247.787 105.246 247.622 106.64 247.038 107.809C246.454 108.978 245.5 109.826 244.386 110.167Z" fill="#6C63FF"/>
<path d="M232.871 87.2012C234.453 89.3225 242.301 92.1022 242.301 92.1022C242.301 92.1022 240.976 82.5753 239.394 80.454C239.021 79.9386 238.564 79.5159 238.051 79.2102C237.538 78.9045 236.978 78.7221 236.404 78.6734C235.83 78.6248 235.254 78.711 234.709 78.9269C234.164 79.1428 233.661 79.4842 233.228 79.9313C232.796 80.3783 232.444 80.9221 232.191 81.531C231.939 82.1399 231.792 82.8018 231.759 83.4782C231.726 84.1546 231.807 84.832 231.998 85.4712C232.189 86.1103 232.486 86.6983 232.871 87.2012Z" fill="#6C63FF"/>
<path d="M223.737 108.421C224.991 110.825 232.327 115.127 232.327 115.127C232.327 115.127 232.389 105.475 231.144 103.068C230.524 101.956 229.562 101.173 228.46 100.884C227.358 100.595 226.204 100.822 225.242 101.519C224.281 102.215 223.587 103.326 223.309 104.614C223.031 105.903 223.189 107.268 223.751 108.421H223.737Z" fill="#6C63FF"/>
<path d="M215.126 33.2342C215.617 31.1129 216.208 28.9811 216.622 26.8319C216.125 28.9811 215.531 31.1199 215.126 33.2342Z" fill="url(#paint0_linear_4_6)"/>
<path d="M212.926 53.6675C212.884 53.5839 212.855 53.5003 212.822 53.4237C212.822 53.3888 212.793 53.361 212.781 53.3261C212.716 53.3619 212.65 53.3933 212.583 53.4202C212.453 53.4794 212.32 53.5351 212.184 53.5804C212.047 53.6257 211.991 53.6501 211.888 53.6779C211.802 53.7128 211.714 53.7395 211.625 53.7581L211.648 53.8207C211.758 53.7929 211.864 53.7685 211.974 53.7337L212.003 54.1656C212.127 54.1656 212.243 54.1447 212.355 54.1447C212.408 54.1412 212.462 54.1412 212.515 54.1447C212.745 54.1447 212.946 54.1447 213.106 54.1447C213.044 53.9879 212.979 53.8242 212.926 53.6675ZM272.954 166.224C271.564 164.019 268.79 140.353 268.79 140.353C268.79 140.353 263.335 123.525 264.822 116.809C266.309 110.094 260.759 92.9104 260.759 92.9104C260.759 92.9104 257.092 91.0329 256.894 88.2463C256.894 88.2463 241.923 82.673 241.222 78.493C240.654 75.0655 231.369 72.6062 228.033 71.8295C227.016 66.9946 225.993 62.4837 225.239 60.021C225.035 59.2547 224.843 58.5929 224.665 58.0704C223.391 54.2387 219.452 53.8904 216.595 54.1969C216.472 53.5439 216.242 52.9253 215.918 52.3752C215.871 52.1861 215.777 52.0176 215.649 51.891C215.588 51.8294 215.523 51.7735 215.454 51.7238C215.402 51.6109 215.334 51.5095 215.253 51.4242C215.172 51.3381 215.082 51.2633 214.987 51.2013C214.918 51.1575 214.847 51.1191 214.774 51.0864C214.603 51.0095 214.425 50.9523 214.245 50.9157C214.034 50.8646 213.82 50.8321 213.606 50.8181C214.128 50.5492 214.593 50.1485 214.969 49.6443C215.225 49.2903 215.415 48.8775 215.528 48.4321C215.622 48.0617 215.664 47.6758 215.652 47.2895C215.575 47.4487 215.486 47.5991 215.386 47.7389C215.51 46.1958 214.818 44.6283 214.422 43.0922C213.942 41.0923 213.853 38.9903 214.162 36.9441C214.558 33.8579 215.54 30.7369 216.205 27.5949C216.207 27.5776 216.207 27.56 216.205 27.5427C216.554 25.9823 216.77 24.3849 216.85 22.774C216.965 19.5241 216.258 16.2811 215.123 13.3203C214.114 10.6974 212.627 8.11625 210.35 7.05036C208.659 6.24571 206.763 6.3746 204.942 6.24223C200.855 5.94267 196.958 4.24978 193.072 2.71016C189.186 1.17053 185.189 -0.229757 181.099 0.0384579C177.009 0.306673 172.801 2.63004 170.936 6.89361C170.344 8.22423 170.004 9.70464 169.297 10.9551C167.973 13.3133 165.601 14.4942 163.623 16.1209C161.644 17.7476 159.903 20.057 159.187 22.8123C158.796 24.2968 158.741 25.8757 159.027 27.3929C159.092 27.7355 159.175 28.0729 159.276 28.403C159.557 29.3234 159.994 30.1663 160.562 30.8797C160.991 31.4069 161.483 31.8565 162.023 32.2138C162.701 32.6567 163.427 32.9895 164.182 33.203C164.155 33.3075 164.128 33.419 164.099 33.527C164.052 33.7046 164.01 33.8753 163.966 34.0669C163.868 34.4953 163.777 34.9308 163.7 35.3697C163.697 35.4009 163.697 35.4325 163.7 35.4637C163.336 37.445 163.154 39.4664 163.156 41.4933C163.155 42.4519 163.196 43.41 163.28 44.3636C164.463 58.4988 174.369 69.6489 186.608 70.3734C187.028 70.3978 187.451 70.4117 187.879 70.4117C188.075 70.4117 188.267 70.4117 188.471 70.4117C188.663 70.7113 188.852 71.0178 189.033 71.3174C189.213 71.617 189.379 71.9235 189.535 72.2231L189.107 71.7006L188.678 71.2373C188.562 71.4252 188.432 71.6012 188.29 71.7633C188.011 71.6474 187.725 71.552 187.436 71.4776C186.209 71.1572 184.34 71.0387 181.88 71.913C179.617 72.7107 176.853 74.3514 173.618 77.4689L157.854 88.6155L149.325 94.7253L146.253 103.573C146.253 103.573 143.944 114.085 141.374 126.131C141.273 126.166 141.176 126.2 141.078 126.242C140.87 126.214 140.661 126.2 140.451 126.2C138.96 126.196 137.526 126.873 136.45 128.088C135.373 129.304 134.739 130.963 134.679 132.718C129.569 140.033 129.279 147.348 130.48 150.706C130.589 151.02 130.726 151.32 130.888 151.601C131.675 152.938 133.144 156.387 134.635 160.062C134.596 160.365 134.573 160.619 134.561 160.811C134.558 160.873 134.558 160.936 134.561 160.999C134.561 160.999 135.448 176.782 132.491 181.306C131.843 182.292 131.941 183.588 132.491 185.023C134.472 190.185 142.305 197.079 142.305 197.079C142.305 197.079 151.7 197.02 156.934 196.347C156.919 196.967 156.907 197.584 156.895 198.186C156.777 204.275 156.777 209.378 156.777 209.378L156.582 215.763C156.582 215.763 154.808 229.219 153.921 232.929C153.362 235.256 154.006 256.8 154.568 272.639H247.13C248.218 263.269 246.683 234.8 246.683 234.8C246.683 234.8 245.226 227.439 245.172 221.023C245.17 221.016 245.168 221.008 245.168 221C245.168 220.993 245.17 220.985 245.172 220.978C245.172 220.417 245.172 219.87 245.19 219.334L245.861 219.306L247.068 219.257H247.177C247.177 219.257 247.207 219.125 247.275 218.909C247.435 218.371 247.652 217.859 247.922 217.386C248.437 216.491 249.241 215.613 250.451 215.554C251.119 215.523 252.154 214.885 253.322 213.945C253.33 213.947 253.338 213.947 253.346 213.945C256.489 211.44 260.644 206.818 261.652 206.059C263.039 205.014 269.68 198.047 269.68 198.047C269.68 198.047 270.671 196.57 271.727 194.79L271.765 194.728C273.078 192.498 274.474 189.833 274.131 188.994C273.539 187.489 274.527 183.891 274.527 183.891C277.611 177.241 274.344 168.429 272.954 166.224ZM215.773 59.084C215.802 59.188 215.82 59.2956 215.827 59.4045C215.753 59.2895 215.679 59.1676 215.605 59.0562L215.534 58.9447L215.484 58.8611L215.596 58.68C215.596 58.68 215.596 58.68 215.596 58.7043C215.674 58.8173 215.734 58.9459 215.773 59.084ZM214.78 55.9978C214.457 56.0744 214.203 56.1441 214.038 56.1964C213.828 55.7575 213.627 55.3186 213.446 54.8727C213.92 55.1967 214.367 55.5734 214.78 55.9978ZM214.224 56.5482C214.223 56.5412 214.223 56.5342 214.224 56.5273L214.248 56.5482C214.369 56.6422 214.487 56.7328 214.596 56.8268C214.694 56.9104 214.783 56.9906 214.871 57.0742C214.812 57.1961 214.747 57.3215 214.682 57.4225C214.579 57.2309 214.481 57.0463 214.387 56.8547C214.327 56.7781 214.274 56.6736 214.224 56.5482ZM212.45 52.2498C213.021 52.1834 213.596 52.1834 214.168 52.2498C214.248 52.2498 214.318 52.2672 214.389 52.2811C214.55 52.3103 214.707 52.3582 214.86 52.4239C215.209 52.9998 215.424 53.6736 215.484 54.3781L215.324 54.4059L215.167 54.4408C214.871 54.5 214.576 54.5592 214.345 54.6149L214.049 54.6881C213.656 54.7891 213.428 54.8657 213.42 54.8692C213.381 54.7752 213.343 54.6881 213.301 54.5975C213.236 54.4477 213.168 54.2945 213.109 54.1447C213.05 53.9949 212.973 53.8242 212.911 53.6675C212.87 53.5839 212.84 53.5003 212.807 53.4237C212.807 53.3888 212.778 53.361 212.766 53.3261C212.749 53.2892 212.734 53.2507 212.722 53.2112C212.541 52.7792 212.376 52.3473 212.216 51.9223C212.198 51.8805 212.184 51.8353 212.169 51.7935L212.393 51.776V51.8666L212.45 52.2498ZM141.897 268.333C141.874 263.147 141.554 257.535 140.667 252.268C140.289 250.029 139.898 247.789 139.502 245.587C139.402 245.037 139.304 244.494 139.206 243.95L138.296 244.093H138.213C135.729 230.296 133.133 218.139 133.133 218.139C133.133 218.139 127.975 194.944 128.573 193.094C128.65 192.854 128.552 192.206 128.333 191.255C127.085 185.981 121.875 171.449 120.053 166.481C120.053 166.46 120.039 166.436 120.033 166.419C119.737 165.586 119.524 165.025 119.459 164.862L119.888 157.449L119.912 157.003L119.968 156.056L119.944 156.031L119.968 155.593C119.968 155.593 115.467 151.245 107.844 148.107C107.548 147.982 107.235 147.86 106.924 147.741C107.306 144.742 107.811 141.356 108.471 138.058C108.533 137.727 108.601 137.406 108.672 137.082C108.734 136.758 108.805 136.445 108.876 136.128C108.988 135.612 109.109 135.104 109.234 134.602C109.645 134.449 110.05 134.278 110.449 134.097L110.603 134.027C115.521 131.773 119.578 127.496 122.025 121.989C124.472 116.481 125.141 110.115 123.909 104.071C123.207 100.643 121.911 97.423 120.101 94.6138C119.965 94.3978 119.82 94.1818 119.675 93.9694C119.53 93.7569 119.356 93.52 119.193 93.3041C120.048 91.0155 121.056 88.8385 121.139 86.6126C121.154 86.3307 121.154 86.0481 121.139 85.7662V85.7313C121.029 84.2997 120.491 82.8506 119.237 81.3284C117.407 79.0956 114.802 77.9636 112.197 77.4202C109.591 76.8768 106.936 76.8628 104.316 76.4971C99.9721 75.884 95.7406 74.3061 91.3967 73.8219C86.0461 73.2383 80.6592 74.3193 75.7745 76.9569C72.5425 78.6985 69.269 81.743 69.0739 85.9194C68.9142 89.3714 70.9545 92.6805 70.44 96.0907C69.9284 99.4416 67.0305 102.079 67.2848 105.468C67.3824 106.791 67.959 107.976 68.6806 109.031C68.929 109.38 69.1921 109.728 69.4642 110.076C70.5169 111.389 71.6761 112.65 72.2645 114.305C72.2882 114.375 72.3118 114.444 72.3325 114.514C72.8323 116.148 72.6075 118.213 71.3715 119.15C71.3783 119.156 71.3835 119.165 71.3863 119.175C71.404 119.202 71.4217 119.223 71.4365 119.251C71.4384 119.246 71.4384 119.239 71.4365 119.234C71.8748 119.846 72.4656 120.28 73.125 120.474L73.3764 120.564C73.1723 120.826 72.9801 121.097 72.785 121.383L72.6578 121.582C72.3319 122.098 72.0356 122.639 71.7707 123.201C71.6199 123.515 71.475 123.828 71.3537 124.142C70.9484 125.097 70.655 126.113 70.4814 127.162C70.165 129.468 70.6115 131.871 70.1325 134.128C69.5411 136.915 67.6692 139.054 66.6136 141.642C64.6146 146.519 65.7472 152.242 66.1493 157.627C66.6964 164.942 65.8093 172.288 64.9251 179.554C64.4559 183.418 63.9867 187.286 63.5175 191.157C62.3347 200.873 61.1519 210.589 59.9691 220.305C59.5373 223.865 59.0258 227.62 57.012 230.369H57.0327C57.0327 230.369 57.0327 230.39 57.012 230.397C57.6165 230.708 58.2595 230.903 58.9164 230.975C61.5452 231.285 64.3307 229.787 66.6964 228.15C68.5698 226.875 70.344 225.407 71.9984 223.764C71.7559 224.809 71.4957 225.948 71.2177 227.175C71.2186 227.186 71.2186 227.198 71.2177 227.209C67.8792 242.188 62.5092 269.647 62.5092 269.647C62.5092 269.647 62.0213 270.841 61.3885 272.621H144.777C143.802 271.228 142.894 269.894 142.184 268.818L141.897 268.333ZM80.1539 129.837C80.1746 129.795 80.1894 129.757 80.2101 129.719C80.2101 129.83 80.2101 129.938 80.2101 130.043C80.2101 130.147 80.2101 130.241 80.2101 130.339C80.2101 130.436 80.2101 130.426 80.2101 130.474C80.2101 130.617 80.1835 130.76 80.1628 130.903C80.1628 130.903 80.1628 130.92 80.1628 130.934L80.4585 131.063L80.8015 131.23C82.8281 132.173 84.8803 133.027 86.9581 133.791C87.171 133.871 87.3869 133.947 87.6028 134.02L87.6471 134.452C87.7003 134.895 87.7506 135.344 87.7979 135.793C87.7979 135.793 87.7979 135.814 87.7979 135.828C87.931 137.072 88.0611 138.312 88.1764 139.524C88.1764 139.524 82.7473 137.086 82.8153 140.789C82.8122 140.855 82.8122 140.921 82.8153 140.987C82.8093 141.075 82.8093 141.164 82.8153 141.252C82.8656 144.136 83.6314 145.846 83.7852 146.724C83.776 146.76 83.7598 146.794 83.7379 146.822C83.6067 147.158 83.5615 147.532 83.6078 147.898C83.6026 148.521 83.6442 149.144 83.732 149.758C83.5723 149.873 83.4156 149.988 83.2588 150.106C83.1406 150.193 83.0282 150.291 82.9129 150.389C82.1875 147.424 81.2384 144.543 80.0771 141.778C79.2639 139.806 78.3501 137.751 78.359 135.588C78.359 135.449 78.359 135.306 78.3738 135.163C78.4068 134.536 78.5081 133.917 78.6754 133.32C78.7434 133.094 78.8174 132.871 78.9001 132.652C79.0934 132.13 79.3096 131.621 79.5477 131.126C79.7015 130.798 79.8641 130.474 80.0209 130.147C80.0711 130.049 80.1185 129.948 80.1658 129.851L80.1539 129.837ZM212.926 53.6675C212.884 53.5839 212.855 53.5003 212.822 53.4237C212.822 53.3888 212.793 53.361 212.781 53.3261C212.716 53.3619 212.65 53.3933 212.583 53.4202C212.453 53.4794 212.32 53.5351 212.184 53.5804C212.047 53.6257 211.991 53.6501 211.888 53.6779L211.625 53.7581L211.648 53.8207C211.758 53.7929 211.864 53.7685 211.974 53.7337L212.003 54.1656C212.127 54.1656 212.243 54.1447 212.355 54.1447H212.515C212.745 54.1447 212.946 54.1447 213.106 54.1447C213.044 53.9879 212.979 53.8242 212.926 53.6675Z" fill="url(#paint1_linear_4_6)"/>
<path d="M148.314 104.83L146.54 105.753C146.54 105.753 134.975 158.679 134.975 162.956C134.975 167.234 159.498 191.035 159.498 191.035L163.324 160.612C163.324 160.612 157.83 90.8447 148.314 104.83Z" fill="#E8F5FF"/>
<path d="M202.106 87.9954L191.86 81.6975C191.286 78.8156 190.267 76.0823 188.855 73.6337C187.356 71.0839 185.363 68.5794 182.879 67.2731C176.601 63.957 209.433 46.5509 209.433 46.5509C209.951 48.6419 210.56 50.6998 211.258 52.7164C212.949 57.6348 215.756 63.9954 219.372 65.8067C225.52 68.8894 202.106 87.9954 202.106 87.9954Z" fill="#FFC1C7"/>
<path opacity="0.1" d="M211.258 52.7164C209.855 58.5283 206.938 63.6742 202.918 67.4274C198.898 71.1807 193.979 73.3516 188.855 73.6337C187.356 71.0839 185.363 68.5794 182.879 67.2731C176.601 63.957 209.433 46.5509 209.433 46.5509C209.951 48.6419 210.56 50.6998 211.258 52.7164Z" fill="black"/>
<path d="M212.181 43.928C212.182 49.628 210.748 55.2004 208.06 59.9404C205.373 64.6804 201.552 68.3751 197.082 70.5571C192.612 72.7392 187.693 73.3107 182.947 72.1993C178.201 71.0879 173.841 68.3435 170.419 64.3132C166.998 60.2829 164.667 55.1479 163.723 49.5574C162.779 43.967 163.264 38.1723 165.116 32.9062C166.967 27.6402 170.104 23.1394 174.127 19.973C178.151 16.8066 182.881 15.1169 187.72 15.1176C190.936 15.1 194.123 15.8333 197.097 17.2749C200.072 18.7165 202.774 20.8379 205.048 23.5167C207.323 26.1954 209.124 29.3784 210.348 32.8818C211.572 36.3852 212.195 40.1395 212.181 43.928Z" fill="#FFC1C7"/>
<path d="M215.711 84.2961L209.04 102.632L203.156 114.803H184.319L178.825 98.1631L181.052 80.9068H195.438L204.726 80.2903L207.863 79.0572L209.886 80.4087L215.711 84.2961Z" fill="#575A89"/>
<path opacity="0.1" d="M213.414 59.8537C213.414 59.8537 217.574 60.8987 213.848 64.497C210.122 68.0952 197.268 79.5379 197.268 79.5379C197.268 79.5379 201.784 84.2752 200.849 89.8241L215.809 80.0012L218.47 64.2845C218.47 64.2845 218.769 59.5611 213.414 59.8537Z" fill="black"/>
<path opacity="0.1" d="M200.21 79.5379L190.695 81.3875C190.695 81.3875 192.658 89.939 191.676 92.3669C191.647 92.4424 191.622 92.5204 191.602 92.6003L187.72 104.963L190.63 114.671L200.701 98.4906L197.268 92.3669C197.268 92.3669 200.896 86.703 203.055 84.7385C205.214 82.7739 200.21 79.5379 200.21 79.5379Z" fill="black"/>
<path d="M200.21 79.0607L190.695 80.9068C190.695 80.9068 192.658 89.4583 191.676 91.8862C191.647 91.9617 191.622 92.0397 191.602 92.1196L187.72 104.482L190.63 114.19L200.701 97.9994L197.268 91.8758C197.268 91.8758 200.896 86.2119 203.055 84.2473C205.214 82.2827 200.21 79.0607 200.21 79.0607Z" fill="#DCE6F2"/>
<path d="M213.813 58.9306C213.813 58.9306 217.973 59.9756 214.245 63.5739C210.516 67.1721 197.268 79.5379 197.268 79.5379C197.268 79.5379 202.174 83.3521 201.242 88.8975L216.202 79.0781L218.864 63.3614C218.864 63.3614 219.159 58.638 213.813 58.9306Z" fill="#575A89"/>
<path opacity="0.1" d="M189.509 74.7239C189.509 74.7239 190.417 76.7234 194.423 80.3286C194.423 80.3286 187.752 84.5086 190.304 90.3849L180.099 87.2499L178.529 81.4711L189.509 74.7239Z" fill="black"/>
<path d="M189.116 74.2641C189.116 74.2641 190.023 76.2636 194.03 79.8688C194.03 79.8688 187.359 84.0279 189.911 89.9216L179.709 86.7866L178.139 81.0113L189.116 74.2641Z" fill="#575A89"/>
<path opacity="0.1" d="M215.711 84.2961L209.04 102.632L203.167 114.803H184.319L178.825 98.1631L181.049 80.9068H185.05C184.984 84.9335 186.232 89.6639 186.153 91.4229C186.017 94.3141 189.813 109.912 189.813 109.912C189.813 109.912 197.759 94.7739 200.896 93.4258C202.869 92.5794 207.047 85.5361 209.883 80.4087L215.711 84.2961Z" fill="black"/>
<path d="M241.991 180.787L241.313 181.79C241.313 181.79 246.219 210.796 244.862 217.383C244.631 218.57 244.499 219.781 244.469 220.999V221.051C244.229 227.753 245.947 236.45 245.947 236.45C245.947 236.45 247.319 262.088 246.539 272.632H154.687C154.148 257.04 153.569 236.841 154.095 234.601C154.982 230.905 156.756 217.498 156.756 217.498L156.952 211.144C156.952 211.144 156.952 205.003 157.111 198.162C157.179 195.086 157.28 191.857 157.425 188.994C157.611 185.392 157.871 182.358 158.229 180.867C158.449 179.737 158.576 178.585 158.608 177.426C158.608 177.318 158.608 177.206 158.625 177.095C158.625 176.747 158.655 176.37 158.667 175.984C158.667 175.876 158.667 175.768 158.667 175.635C158.723 173.392 158.702 170.731 158.64 167.972C158.64 167.822 158.64 167.669 158.64 167.516C158.59 165.447 158.516 163.336 158.433 161.329C158.176 155.059 157.842 149.758 157.842 149.758L146.561 105.729L149.6 96.9091L158.037 90.8203L173.635 79.726C181.244 72.3588 186.253 73.2435 188.163 74.0517C188.349 74.1262 188.531 74.2135 188.707 74.3129C188.767 74.3477 188.814 74.3756 188.858 74.407C188.919 74.4408 188.977 74.4804 189.033 74.5254C188.51 74.8218 188.055 75.2628 187.708 75.8107C187.317 76.4343 187.038 77.1455 186.889 77.9007C186.789 78.3688 186.719 78.845 186.679 79.3254C186.64 79.8305 186.626 80.353 186.626 80.8789C186.647 82.0324 186.731 83.1831 186.877 84.3239C186.877 84.3448 186.877 84.3727 186.877 84.4006C186.975 85.2157 187.096 86.0133 187.214 86.7623C187.213 86.775 187.213 86.7878 187.214 86.8006C187.35 87.6749 187.486 88.483 187.578 89.1797C187.596 89.3051 187.61 89.42 187.625 89.528C187.69 89.9884 187.721 90.4546 187.717 90.9213C187.75 92.0483 187.879 93.1685 188.101 94.2653C188.178 94.7251 188.267 95.2162 188.364 95.7283C188.497 96.425 188.642 97.1843 188.799 97.9576C188.885 98.3826 188.977 98.8215 189.071 99.2569C189.107 99.431 189.145 99.6052 189.181 99.7829L189.24 100.058C189.87 103.008 190.553 105.945 190.973 107.721C191.221 108.766 191.378 109.411 191.378 109.411C191.378 109.411 195.831 100.929 199.385 96.101C199.439 96.0313 199.486 95.9652 199.536 95.9025C199.888 95.4252 200.234 94.9898 200.565 94.6067C201.29 93.7567 201.94 93.1506 202.464 92.9277C202.575 92.8795 202.683 92.8201 202.786 92.7501C204.241 91.7782 206.589 88.2496 208.786 84.5538C209.002 84.2055 209.212 83.8258 209.425 83.467C209.912 82.638 210.386 81.8055 210.832 81.0078C211.175 80.3982 211.503 79.8061 211.814 79.2418C213.292 76.5318 214.333 74.5115 214.333 74.5115L216.385 74.4035L216.743 74.3826H216.983L226.3 73.874C226.3 73.874 226.703 73.9541 227.365 74.1109C227.401 74.1109 227.436 74.1109 227.474 74.1387C230.78 74.912 239.965 77.3608 240.527 80.757C241.213 84.9161 256.028 90.465 256.028 90.465C256.223 93.2517 259.851 95.0874 259.851 95.0874C259.851 95.0874 265.345 112.19 263.876 118.892C262.424 125.511 267.655 141.882 267.794 142.342L266.791 143.833L241.991 180.787Z" fill="#E8F5FF"/>
<path opacity="0.1" d="M213.411 58.638C213.411 58.638 222.48 55.6076 224.541 61.8462C226.602 68.0848 231.212 93.2795 231.212 93.2795C231.212 93.2795 219.242 95.9373 216.105 93.2795C214.264 91.7022 211.986 91.0006 209.726 91.315L202.957 96.7454L200.959 96.0488C200.959 96.0488 211.787 77.0856 214.141 70.6415C216.495 64.1974 217.29 61.3167 213.411 58.638Z" fill="black"/>
<path d="M213.017 57.2447C213.017 57.2447 222.093 54.2142 224.163 60.4528C226.232 66.6914 230.834 91.8862 230.834 91.8862C230.834 91.8862 218.866 94.544 215.726 91.8862C213.887 90.3088 211.61 89.6071 209.351 89.9216L202.576 95.3521L200.577 94.6554C200.577 94.6554 211.406 75.6923 213.76 69.2482C216.113 62.8041 216.897 59.9303 213.017 57.2447Z" fill="#E8F5FF"/>
<path opacity="0.1" d="M152.14 157.756C152.14 157.756 158.909 159.72 160.187 164.228C161.464 168.735 155.183 168.85 155.183 168.85C155.183 168.85 151.357 160.877 152.14 157.756Z" fill="black"/>
<path opacity="0.1" d="M177.352 191.035C177.352 191.035 160.775 231.02 164.602 234.834C168.428 238.648 177.352 191.035 177.352 191.035Z" fill="black"/>
<path opacity="0.1" d="M200.21 161.57C200.21 161.57 213.455 200.409 210.806 206.407C208.156 212.405 216.495 206.407 216.495 206.407L200.21 161.57Z" fill="black"/>
<path d="M218.654 199.935C218.654 199.935 173.919 202.478 186.969 218.888C200.018 235.298 226.797 219.584 226.797 219.584L218.654 199.935Z" fill="#FFC1C7"/>
<path opacity="0.1" d="M212.181 43.928C212.185 47.7075 211.555 51.4506 210.326 54.9422C209.915 54.998 209.504 55.0328 209.108 55.0537C208.517 53.5245 208.833 51.7585 208.845 50.0761C208.857 48.3936 208.33 46.4151 206.955 45.9623C204.214 45.0531 202.322 51.0897 199.619 49.9994C197.549 49.1704 198.09 45.4711 196.898 43.3359C195.955 41.6465 194.066 41.1692 192.596 40.1103C189.47 37.8496 189.565 34.234 188.113 30.8134C186.593 27.229 183.382 28.288 180.593 30.4023C178.476 32.0116 176.649 34.1678 174.383 35.4496C172.423 36.5643 170.22 36.9684 168.046 37.0276C166.708 37.0887 165.37 36.9221 164.072 36.5329C165.599 29.7732 169.16 23.8982 174.092 20.0035C179.025 16.1088 184.991 14.4603 190.88 15.3655C196.768 16.2706 202.175 19.6676 206.094 24.923C210.013 30.1783 212.175 36.9332 212.178 43.928H212.181Z" fill="black"/>
<path d="M180.602 29.4792C178.482 31.0885 176.657 33.2412 174.392 34.53C172.432 35.6412 170.229 36.0453 168.055 36.1045C165.394 36.1742 162.529 35.6238 160.71 33.3597C159.039 31.2697 158.64 28.0546 159.347 25.3132C160.054 22.5718 161.748 20.2972 163.738 18.6496C165.728 17.002 168.038 15.863 169.356 13.5048C170.054 12.2578 170.391 10.7878 170.971 9.46067C172.825 5.21452 176.995 2.91554 181.025 2.6299C185.055 2.34427 189.05 3.7585 192.889 5.29115C196.727 6.82381 200.595 8.50973 204.646 8.82671C206.45 8.95908 208.325 8.82671 209.998 9.63136C212.249 10.7077 213.724 13.2819 214.729 15.9013C215.856 18.8552 216.557 22.0807 216.439 25.3062C216.19 32.1927 212.328 38.9504 214.026 45.5478C214.475 47.3068 215.318 49.1112 214.868 50.8703C214.212 53.4375 211.4 54.0227 209.126 54.1446C208.534 52.6154 208.851 50.8459 208.863 49.1669C208.875 47.488 208.348 45.506 206.976 45.0531C204.232 44.1509 202.339 50.1771 199.643 49.0903C197.587 48.2578 198.12 44.562 196.925 42.4267C195.982 40.7338 194.089 40.2601 192.623 39.2012C189.497 36.9405 189.592 33.3248 188.14 29.9042C186.608 26.3025 183.394 27.3614 180.602 29.4792Z" fill="#99607E"/>
<path d="M137.225 162.03L134.969 162.956C134.969 162.956 135.856 178.673 132.899 183.18C129.942 187.688 142.61 198.893 142.61 198.893C142.61 198.893 159.974 198.779 160.465 197.152C160.955 195.525 159.577 168.031 159.577 168.031C159.577 168.031 150.257 163.754 151.04 156.937C151.04 156.937 148.196 172.999 143.979 172.305C139.762 171.612 134.975 167.464 137.225 162.03Z" fill="#E8F5FF"/>
<path opacity="0.1" d="M144.751 177.168C148.038 177.168 150.703 174.297 150.703 170.755C150.703 167.214 148.038 164.343 144.751 164.343C141.463 164.343 138.798 167.214 138.798 170.755C138.798 174.297 141.463 177.168 144.751 177.168Z" fill="black"/>
<path d="M151.259 162.493C151.259 162.493 150.076 119.969 139.78 129.443C129.484 138.918 129.383 150.249 131.344 153.597C133.304 156.944 139.591 173.702 139.591 173.702C140.574 174.374 141.679 174.761 142.813 174.832C143.948 174.904 145.082 174.658 146.12 174.114C147.159 173.57 148.073 172.745 148.789 171.704C149.504 170.664 150 169.439 150.236 168.129L151.259 162.493Z" fill="#FFC1C7"/>
<path opacity="0.1" d="M215.489 54.7785C215.441 54.5917 215.349 54.4249 215.223 54.2978C214.715 53.7509 213.621 53.5594 211.971 53.7266L212.039 54.6462C214.239 54.4232 214.673 54.9388 214.73 55.0258V55.1129L214.798 55.2279C215.072 55.6621 215.266 56.1591 215.368 56.687C215.47 57.2148 215.477 57.7619 215.389 58.2932C214.907 61.1321 211.947 63.3927 211.917 63.4171L211.846 63.4659L211.802 63.546C210.525 65.7788 203.301 72.0801 201.411 73.7103L201.245 73.4874C200.4 74.3512 192.966 82.018 192.563 84.9544C192.303 86.7971 190.541 87.5112 189.902 87.7097C189.228 87.1071 187.04 85.0554 185.901 82.7565C184.834 80.5933 189.13 76.3715 189.509 74.7239L188.917 74.0099C188.855 74.2746 183.337 80.3495 184.872 83.4531C186.102 85.9437 188.35 88.0755 189.136 88.7791C188.885 91.4682 187.321 107.258 184.917 110.999C181.93 115.649 179.419 139.085 179.697 147.267C179.943 154.537 178.331 168.268 172.949 174.165C172.018 175.231 170.894 176.035 169.661 176.518C168.429 177 167.12 177.149 165.832 176.952H165.767H165.702C165.625 176.952 157.818 177.893 151.259 171.379C145.892 166.06 142.852 157.379 142.22 145.571H142.089L142.036 142.133C143.491 141.865 144.802 140.944 145.692 139.562C146.583 138.18 146.984 136.445 146.812 134.722C146.639 132.999 145.906 131.422 144.767 130.322C143.628 129.222 142.172 128.685 140.704 128.824C139.236 128.962 137.87 129.766 136.895 131.066C135.919 132.365 135.409 134.06 135.471 135.793C135.534 137.526 136.164 139.164 137.23 140.361C138.296 141.558 139.715 142.222 141.188 142.213H141.253L141.306 145.63L141.046 145.651C141.696 157.843 144.89 166.861 150.508 172.431C154.779 176.599 160.233 178.702 165.77 178.314C166.162 178.365 166.557 178.39 166.952 178.391C169.49 178.406 171.932 177.249 173.754 175.169C179.422 168.951 181.146 154.715 180.877 147.198C180.581 138.528 183.216 115.935 185.86 111.821C188.45 107.784 190.02 92.0534 190.295 89.0055C191.233 88.6955 193.353 87.7167 193.714 85.1739C193.974 83.3347 198.939 77.6673 201.994 74.5289L201.902 74.4035C203.546 72.9893 208.659 68.5306 211.193 65.6673C211.979 64.7791 212.76 63.8909 213.576 63.0444C214.558 62.0203 215.806 60.3936 216.134 58.4708C216.246 57.8361 216.247 57.1812 216.136 56.5462C216.025 55.9112 215.805 55.3097 215.489 54.7785Z" fill="black"/>
<path d="M189.036 88.5596C188.911 88.4586 185.966 85.975 184.491 82.9863C182.959 79.8827 188.477 73.8113 188.536 73.5466L189.127 74.2607C188.752 75.9048 184.455 80.13 185.523 82.2897C186.868 85.0171 189.701 87.4032 189.731 87.4276L189.036 88.5596Z" fill="#353146"/>
<path d="M201.027 74.3861L200.565 73.6372C200.66 73.557 209.948 65.643 211.412 63.0827L211.459 63.0061L211.527 62.9539C211.557 62.9295 214.517 60.6723 214.999 57.8299C215.087 57.2992 215.081 56.7524 214.979 56.225C214.877 55.6976 214.682 55.2012 214.407 54.7681L214.339 54.6496V54.566C214.28 54.4755 213.845 53.9634 211.645 54.1864L211.577 53.2633C213.23 53.0961 214.321 53.2877 214.83 53.8345C214.957 53.9629 215.05 54.1307 215.099 54.3187C215.419 54.8483 215.643 55.4495 215.758 56.0851C215.873 56.7208 215.876 57.3774 215.767 58.0145C215.439 59.9408 214.194 61.5675 213.21 62.5881C212.396 63.4345 211.613 64.3298 210.829 65.211C207.857 68.5655 201.352 74.1109 201.027 74.3861Z" fill="#E8F5FF"/>
<path d="M141.655 140.92L140.871 140.937L140.958 146.548L141.742 146.531L141.655 140.92Z" fill="#E8F5FF"/>
<path d="M140.806 141.771C143.966 141.771 146.528 138.753 146.528 135.03C146.528 131.308 143.966 128.29 140.806 128.29C137.646 128.29 135.084 131.308 135.084 135.03C135.084 138.753 137.646 141.771 140.806 141.771Z" fill="#6C63FF"/>
<path d="M140.806 140.628C143.431 140.628 145.558 138.122 145.558 135.03C145.558 131.939 143.431 129.433 140.806 129.433C138.182 129.433 136.054 131.939 136.054 135.03C136.054 138.122 138.182 140.628 140.806 140.628Z" fill="#E8F5FF"/>
<path d="M166.58 177.941C166.185 177.942 165.79 177.918 165.397 177.868C159.861 178.252 154.408 176.15 150.136 171.985C144.517 166.412 141.33 157.404 140.673 145.202L141.856 145.115C142.489 156.923 145.529 165.607 150.899 170.922C157.457 177.419 165.261 176.496 165.338 176.496H165.403H165.468C166.756 176.691 168.066 176.543 169.298 176.06C170.531 175.578 171.656 174.774 172.589 173.709C177.967 167.812 179.579 154.081 179.334 146.811C179.038 138.622 181.548 115.186 184.538 110.539C187.155 106.467 188.778 88.1138 188.796 87.9292L188.841 87.4067L189.278 87.3161C189.305 87.3161 191.86 86.7449 192.179 84.4946C192.593 81.5617 200.015 73.8949 200.858 73.0276L201.63 74.0726C198.563 77.2076 193.598 82.8784 193.35 84.7211C192.989 87.2708 190.869 88.2462 189.935 88.5527C189.639 91.6041 188.081 107.331 185.499 111.368C182.855 115.482 180.221 138.075 180.516 146.745C180.771 154.262 179.064 168.502 173.396 174.716C171.57 176.802 169.123 177.96 166.58 177.941Z" fill="#353146"/>
<g opacity="0.1">
<path d="M214.7 35.6935C215.185 33.5826 215.77 31.4578 216.178 29.319C215.691 31.4682 215.102 33.5826 214.7 35.6935Z" fill="black"/>
<path d="M209.753 52.281C209.161 50.7518 209.478 48.9823 209.49 47.3033C209.501 45.6244 208.975 43.6598 207.603 43.1895C204.859 42.2874 202.966 48.317 200.27 47.2267C198.2 46.3942 198.747 42.6984 197.552 40.5631C196.609 38.8702 194.719 38.3965 193.252 37.3376C190.124 35.0769 190.219 31.4612 188.77 28.0406C187.247 24.4528 184.038 25.5117 181.247 27.6296C179.127 29.2389 177.302 31.3951 175.037 32.6804C173.076 33.7916 170.873 34.1956 168.7 34.2549C166.053 34.328 163.173 33.7742 161.355 31.51C159.953 29.7683 159.447 27.2151 159.737 24.8221C159.687 24.9858 159.643 25.1495 159.598 25.3132C158.888 28.0546 159.302 31.2766 160.961 33.3596C162.78 35.6238 165.66 36.1742 168.307 36.1045C170.483 36.0453 172.683 35.6412 174.647 34.53C176.918 33.2412 178.742 31.0885 180.856 29.4792C183.648 27.3614 186.859 26.3025 188.379 29.8903C189.828 33.3109 189.737 36.9266 192.862 39.1872C194.341 40.2322 196.218 40.7199 197.165 42.4128C198.347 44.555 197.824 48.2438 199.882 49.0763C202.576 50.1631 204.469 44.137 207.213 45.0392C208.585 45.492 209.114 47.4775 209.099 49.153C209.085 50.8284 208.777 52.6014 209.362 54.1306C211.636 54.0087 214.449 53.434 215.108 50.8563C215.199 50.4864 215.241 50.1022 215.232 49.7173C214.271 51.6714 211.799 52.173 209.753 52.281Z" fill="black"/>
</g>
<path opacity="0.1" d="M263.196 138.11L266.629 142.387C266.629 142.387 269.376 165.959 270.748 168.164C272.12 170.369 275.361 179.14 272.318 185.727C272.318 185.727 271.336 189.311 271.925 190.812C272.513 192.313 267.513 199.827 267.513 199.827C267.513 199.827 260.939 206.759 259.564 207.8C258.189 208.842 250.933 217.16 248.481 217.275C246.03 217.39 245.229 220.974 245.229 220.974L231.395 221.552C231.395 221.552 223.754 221.082 222.093 222.354C222.093 222.354 222.98 208.601 214.443 199.587L225.331 194.964C225.331 194.964 229.453 192.874 230.727 190.69C231.529 189.351 232.666 188.342 233.98 187.803C233.98 187.803 237.02 185.26 237.117 183.873C237.215 182.487 240.834 180.787 240.834 180.787L238.785 160.183L239.864 125.977C239.864 125.977 243.298 97.3167 250.557 98.9364C257.817 100.556 263.196 138.11 263.196 138.11Z" fill="black"/>
<path d="M264.379 138.11L267.812 142.387C267.812 142.387 270.559 165.959 271.931 168.164C273.303 170.369 276.544 179.14 273.501 185.727C273.501 185.727 272.522 189.311 273.111 190.812C273.699 192.313 268.696 199.827 268.696 199.827C268.696 199.827 262.122 206.759 260.747 207.8C259.372 208.842 252.116 217.16 249.664 217.275C247.213 217.39 246.411 220.974 246.411 220.974L232.578 221.552C232.578 221.552 224.931 221.082 223.275 222.354C223.275 222.354 224.163 208.601 215.626 199.587L226.513 194.964C226.513 194.964 230.636 192.874 231.91 190.69C232.712 189.351 233.849 188.342 235.163 187.803C235.163 187.803 238.203 185.26 238.3 183.873C238.398 182.487 242.017 180.787 242.017 180.787L239.968 160.183L241.047 125.977C241.047 125.977 244.48 97.3167 251.74 98.9364C259 100.556 264.379 138.11 264.379 138.11Z" fill="#E8F5FF"/>
<path opacity="0.1" d="M160.355 118.349C160.355 118.349 162.407 134.992 161.396 141.771C160.385 148.549 164.075 156.947 164.075 156.947L160.355 118.349Z" fill="black"/>
<path d="M114.923 125.117C112.557 127.301 110.83 132.47 109.58 138.152C107.397 148.062 106.685 159.553 106.685 159.553C106.685 159.553 87.8482 154.467 89.2203 152.158C90.0837 150.705 88.9246 139.761 87.9576 131.826C87.381 127.137 86.8665 123.497 86.8665 123.497C86.8665 123.497 121.399 119.105 114.923 125.117Z" fill="#FFCCD0"/>
<path opacity="0.1" d="M114.923 124.654C112.557 126.841 110.83 132.007 109.58 137.688C105.827 139.031 101.835 139.152 98.0286 138.039C94.222 136.926 90.742 134.62 87.9576 131.366C87.381 126.674 86.8665 123.034 86.8665 123.034C86.8665 123.034 121.399 118.645 114.923 124.654Z" fill="black"/>
<path d="M125.048 112.204C125.05 118.263 123.232 124.127 119.917 128.759C116.601 133.39 112.002 136.491 106.932 137.512C101.862 138.533 96.6492 137.408 92.2158 134.337C87.7823 131.266 84.4142 126.446 82.7074 120.731C81.0006 115.016 81.0653 108.773 82.89 103.109C84.7147 97.4444 88.1817 92.7229 92.6775 89.7801C97.1732 86.8372 102.408 85.8628 107.455 87.0292C112.502 88.1956 117.036 91.4276 120.255 96.1533C123.356 100.705 125.047 106.367 125.048 112.204Z" fill="#FFCCD0"/>
<path d="M141.031 272.632H63.1538C63.4909 271.729 63.7156 271.183 63.7156 271.183C63.7156 271.183 69.9462 239.073 73.1132 225.489C73.1141 225.477 73.1141 225.465 73.1132 225.454C73.5089 223.608 73.9866 221.789 74.5444 220.002C74.5804 219.881 74.627 219.764 74.6834 219.654C76.2506 216.651 78.2141 213.415 75.467 208.793C72.7199 204.171 73.6927 183.832 73.6927 183.832C73.6927 183.832 77.0283 166.495 80.559 157.251C81.0949 155.819 81.8553 154.519 82.8005 153.419C83.1078 153.065 83.4358 152.736 83.7822 152.437C84.0456 152.203 84.32 151.988 84.6043 151.792L84.6605 151.75C86.1437 150.76 87.7907 150.157 89.4893 149.984C90.696 149.836 91.914 149.876 93.1117 150.103C98.8366 151.092 103.42 152.747 107.063 154.631C116.937 159.741 119.926 166.589 119.985 166.732L120.009 166.791C120.405 167.882 126.201 183.821 128.289 191.258C128.83 193.195 129.126 194.557 129.007 194.929C128.416 196.776 133.52 219.887 133.52 219.887C133.52 219.887 135.886 231.034 138.251 244.1C138.355 244.643 138.452 245.187 138.547 245.737C138.97 248.109 139.39 250.527 139.795 252.94C140.58 257.915 140.984 262.963 141.004 268.023C141.048 269.6 141.056 271.136 141.031 272.632Z" fill="#FF748E"/>
<path opacity="0.1" d="M89.0251 142.035C89.0251 142.035 83.6521 139.597 83.7172 143.296C83.7823 146.996 85.0272 148.765 84.6339 149.305C84.2406 149.845 84.8291 153.081 84.8291 153.081C84.8291 153.081 92.0886 153.081 95.4242 154.85C98.7597 156.62 111.055 160.166 112.625 161.246C114.196 162.326 120.018 167.167 120.018 167.167L120.541 157.999C120.541 157.999 114.524 152.144 104.65 149.141C94.7766 146.139 89.0251 142.035 89.0251 142.035Z" fill="black"/>
<path d="M89.0251 141.572C89.0251 141.572 83.6521 139.134 83.7172 142.833C83.7823 146.532 85.0272 148.302 84.6339 148.842C84.2406 149.382 84.8291 152.618 84.8291 152.618C84.8291 152.618 92.0886 152.618 95.4242 154.391C98.7597 156.164 111.055 159.706 112.625 160.783C114.196 161.859 120.018 166.704 120.018 166.704L120.547 157.564C120.547 157.564 114.53 151.709 104.656 148.706C94.7825 145.703 89.0251 141.572 89.0251 141.572Z" fill="#FF748E"/>
<path opacity="0.1" d="M105.245 163.635C105.245 163.635 115.511 176.729 114.988 180.355C114.465 183.981 105.245 163.635 105.245 163.635Z" fill="black"/>
<path opacity="0.1" d="M88.5668 210.935C88.5668 210.935 81.0411 219.104 78.8233 219.567C76.6055 220.03 80.5236 221.57 83.0726 220.34C85.6215 219.111 91.0566 215.875 91.0566 215.875L88.5668 210.935Z" fill="black"/>
<path opacity="0.1" d="M120.255 96.1533C119.631 97.8113 119.072 99.5321 118.989 101.378C118.755 106.708 119.134 118.624 114.125 121.299C111.644 122.616 108.988 119.725 106.268 119.655C104.31 119.606 102.515 121.069 101.321 122.898C100.126 124.727 99.3837 126.897 98.5172 128.966C97.7285 130.844 96.8201 132.649 95.7997 134.365C95.4947 134.89 95.1587 135.39 94.7943 135.859C91.7399 134.341 89.0199 132.022 86.8417 129.078C84.6636 126.134 83.0846 122.643 82.2252 118.871C81.3659 115.099 81.2487 111.146 81.8827 107.313C82.5168 103.48 83.8852 99.8676 85.8838 96.7518C87.8824 93.636 90.4585 91.0987 93.4156 89.3333C96.3728 87.5678 99.633 86.6208 102.948 86.5645C106.263 86.5081 109.545 87.3438 112.544 89.0079C115.543 90.672 118.18 93.1206 120.255 96.1672V96.1533Z" fill="black"/>
<path d="M118.596 100.438C118.359 105.767 118.741 117.684 113.728 120.355C111.247 121.672 108.592 118.784 105.871 118.715C103.914 118.662 102.122 120.129 100.924 121.954C99.7267 123.779 98.9904 125.953 98.121 128.026C97.332 129.903 96.4236 131.708 95.4034 133.425C94.7943 134.442 94.1201 135.462 93.1827 136.034C91.5504 137.037 89.5721 136.473 87.8216 135.828C85.5505 134.985 83.313 134.035 81.109 132.979C81.1596 132.587 81.1853 132.191 81.1859 131.794C81.1209 131.941 81.0499 132.077 80.9789 132.223L80.8399 132.509C80.5886 133.031 80.3432 133.554 80.1184 134.09C80.0327 134.296 79.9499 134.508 79.8759 134.72C79.5786 135.511 79.3918 136.353 79.323 137.215C79.1722 139.538 80.145 141.743 81.0085 143.833C84.3293 151.918 86.3815 161.371 83.8828 169.853C82.8005 173.542 80.9257 176.82 79.5566 180.383C77.1633 186.695 76.4588 193.715 77.5369 200.51C78.22 204.731 79.5891 208.911 79.252 213.192C78.6606 220.56 73.2669 226.042 67.8644 229.811C64.9458 231.839 61.3737 233.643 58.2747 232.041C60.25 229.324 60.7586 225.565 61.1844 222.019C62.3495 212.347 63.5175 202.671 64.6885 192.989C65.1557 189.137 65.622 185.284 66.0872 181.432C66.9566 174.193 67.8378 166.875 67.2937 159.591C66.8974 154.224 65.7797 148.525 67.755 143.666C68.7988 141.091 70.6588 138.96 71.2384 136.187C71.7145 133.933 71.2709 131.537 71.5844 129.241C71.7559 128.197 72.0464 127.185 72.4478 126.232C72.959 124.939 73.6263 123.74 74.4291 122.672C73.6366 122.4 72.8973 122.027 72.4478 121.247C73.7194 120.272 73.9116 118.074 73.3349 116.423C72.7583 114.772 71.6051 113.514 70.5671 112.211C69.5292 110.909 68.5297 109.39 68.3996 107.613C68.1483 104.231 71.0166 101.612 71.5223 98.2746C72.0338 94.8784 70.0112 91.5762 70.1738 88.1382C70.3631 83.9826 73.604 80.9626 76.8036 79.2105C81.6318 76.5776 86.9654 75.496 92.2631 76.0755C96.5744 76.5562 100.747 78.1272 105.046 78.7367C107.64 79.0851 110.269 79.1199 112.844 79.6563C115.42 80.1927 118.001 81.3248 119.814 83.5507C124.593 89.42 118.868 94.2514 118.596 100.438Z" fill="#FFE0D0"/>
<path opacity="0.1" d="M114.598 258.232C113.09 257.462 110.345 257.922 105.635 256.232C100.924 254.543 100.016 246.907 100.016 246.907V246.883C99.9603 246.709 99.5227 245.573 96.5597 241.595C93.2862 237.203 86.21 215.018 86.21 215.018C86.21 215.018 79.9351 207.079 80.1333 204.153C80.3314 201.227 79.0184 193.442 79.1486 184.734C79.2787 176.026 93.2744 170.25 93.2744 170.25C120.222 164.625 113.876 201.22 113.158 203.993C112.439 206.766 116.168 214.255 116.168 214.255C115.642 217.515 118.327 222.563 118.327 222.563C118.327 222.563 118.977 227.028 119.11 228.725C119.118 228.803 119.132 228.88 119.155 228.954C119.586 230.553 123.105 232.002 124.536 232.884C126.042 233.81 130.882 241.898 130.882 241.898C131.926 247.837 116.1 259.012 114.598 258.232Z" fill="black"/>
<path d="M115.381 256.838C113.876 256.065 111.129 256.528 106.421 254.835C101.714 253.143 100.803 245.514 100.803 245.514V245.49C100.75 245.312 100.309 244.18 97.3463 240.202C94.0728 235.81 86.9966 213.621 86.9966 213.621C86.9966 213.621 80.7217 205.686 80.9169 202.76C81.1121 199.834 79.805 192.049 79.9352 183.347C80.0653 174.646 94.0521 168.874 94.0521 168.874C121 163.249 114.654 199.844 113.935 202.617C113.217 205.39 116.946 212.879 116.946 212.879C116.419 216.139 119.104 221.187 119.104 221.187C119.104 221.187 119.755 225.652 119.891 227.349C119.896 227.427 119.91 227.504 119.932 227.579C120.364 229.177 123.883 230.626 125.317 231.508C126.819 232.431 131.663 240.522 131.663 240.522C132.713 246.451 116.887 257.626 115.381 256.838Z" fill="#FF748E"/>
<path opacity="0.1" d="M94.5844 187.98C94.5844 187.98 106.356 202.61 109.429 202.61C112.501 202.61 94.5844 187.98 94.5844 187.98Z" fill="black"/>
<path d="M115.381 256.838C113.876 256.065 111.129 256.528 106.421 254.835C101.714 253.143 100.803 245.514 100.803 245.514V245.49C103.923 243.051 111.824 236.165 114.938 233.646C117.129 231.88 118.918 229.285 119.965 227.565C120.396 229.163 123.915 230.612 125.35 231.494C126.852 232.417 131.695 240.509 131.695 240.509C132.713 246.451 116.886 257.626 115.381 256.838Z" fill="#FF748E"/>
<g opacity="0.1">
<path d="M72.4656 121.285C72.4804 121.313 72.5011 121.338 72.5188 121.365C72.6075 121.233 72.6992 121.101 72.7938 120.975C72.693 121.091 72.5831 121.195 72.4656 121.285Z" fill="black"/>
<path d="M79.3259 137.253C79.4501 135.32 80.3284 133.616 81.1504 131.916C80.6123 131.673 80.0741 131.425 79.5418 131.167C79.5925 130.777 79.6182 130.382 79.6187 129.987C78.7878 131.728 77.8829 133.442 77.7557 135.403C77.6049 137.73 78.5778 139.931 79.4413 142.021C82.765 150.103 84.8142 159.556 82.3155 168.042C81.2303 171.727 79.3585 175.008 77.9893 178.572C75.5969 184.882 74.8934 191.902 75.9726 198.695C76.6498 202.92 78.0219 207.097 77.6848 211.378C77.0934 218.745 71.7027 224.228 66.2972 227.993C64.0882 229.533 61.5067 230.943 59.0376 230.842C58.809 231.276 58.554 231.689 58.2747 232.079C61.3766 233.692 64.9458 231.877 67.8644 229.843C73.2728 226.081 78.6754 220.612 79.2668 213.231C79.6039 208.95 78.2318 204.773 77.5517 200.548C76.4722 193.755 77.1735 186.737 79.5625 180.425C80.9227 176.865 82.8153 173.58 83.8887 169.895C86.3874 161.41 84.3352 151.956 81.0144 143.875C80.1539 141.771 79.1751 139.58 79.3259 137.253Z" fill="black"/>
<path d="M119.808 83.5925C119.517 83.2409 119.205 82.915 118.874 82.6171C122.458 88.0929 117.283 92.7466 117.025 98.6404C116.795 103.97 117.173 115.89 112.161 118.558C109.683 119.878 107.025 116.987 104.307 116.917C102.347 116.869 100.555 118.335 99.3571 120.16C98.1594 121.985 97.4231 124.159 96.5567 126.228C95.7663 128.106 94.8569 129.911 93.8362 131.627C93.2448 132.648 92.5529 133.665 91.6125 134.24C89.9861 135.239 88.0079 134.679 86.2543 134.031C84.5491 133.399 82.8596 132.702 81.1859 131.941C81.1825 132.304 81.1568 132.666 81.1091 133.024C83.315 134.083 85.5535 135.033 87.8245 135.873C89.5751 136.521 91.5534 137.082 93.1827 136.082C94.1201 135.508 94.8002 134.487 95.4064 133.466C96.4278 131.752 97.3363 129.948 98.124 128.071C98.9933 126.002 99.7267 123.825 100.927 121.999C102.128 120.174 103.917 118.711 105.874 118.76C108.595 118.83 111.253 121.721 113.731 120.401C118.743 117.732 118.362 105.812 118.596 100.483C118.868 94.2862 124.593 89.4584 119.808 83.5925Z" fill="black"/>
</g>
<path opacity="0.1" d="M80.8429 132.512C80.5916 133.035 80.3461 133.557 80.1214 134.093C80.0357 134.299 79.9529 134.511 79.8789 134.724C78.3294 132.885 74.5562 128.513 72.4508 127.158C72.9627 125.866 73.63 124.667 74.432 123.598C74.432 123.598 79.4501 126.723 80.8429 132.512Z" fill="black"/>
<path d="M80.9819 132.226C79.8198 126.03 74.432 122.675 74.432 122.675C73.6293 123.743 72.962 124.942 72.4508 126.235C74.6716 127.667 78.7641 132.467 80.1214 134.093L80.9819 132.226Z" fill="#FF748E"/>
</g>
<defs>
<linearGradient id="paint0_linear_4_6" x1="215.874" y1="33.2342" x2="215.874" y2="26.8319" gradientUnits="userSpaceOnUse">
<stop stop-color="#808080" stop-opacity="0.25"/>
<stop offset="0.54" stop-color="#808080" stop-opacity="0.12"/>
<stop offset="1" stop-color="#808080" stop-opacity="0.1"/>
</linearGradient>
<linearGradient id="paint1_linear_4_6" x1="166.432" y1="272.632" x2="166.432" y2="0.000144506" gradientUnits="userSpaceOnUse">
<stop stop-color="#808080" stop-opacity="0.25"/>
<stop offset="0.54" stop-color="#808080" stop-opacity="0.12"/>
<stop offset="1" stop-color="#808080" stop-opacity="0.1"/>
</linearGradient>
<clipPath id="clip0_4_6">
<rect width="241" height="240" fill="white"/>
</clipPath>
</defs>
</svg>
