<svg width="241" height="240" viewBox="0 0 241 240" fill="none" xmlns="http://www.w3.org/2000/svg">
<g clip-path="url(#clip0_5_102)">
<path d="M0 237.569C0 237.92 0.243463 238.201 0.546637 238.201H240.453C240.757 238.201 241 237.92 241 237.569C241 237.219 240.757 236.938 240.453 236.938H0.546637C0.24346 236.938 0 237.219 0 237.569Z" fill="#3F3C57"/>
<path d="M78.2746 25.506L80.8835 39.2627L75.3343 58.4108L66.3939 37.8378L67.6344 25.9024L78.2746 25.506Z" fill="#FDB4B4"/>
<path d="M81.3682 38.5502H65.9314V60.103H81.3682V38.5502Z" fill="#6C63FF"/>
<path d="M75.0203 32.4355C80.8426 32.4355 85.5625 26.9814 85.5625 20.2534C85.5625 13.5255 80.8426 8.0714 75.0203 8.0714C69.198 8.0714 64.4781 13.5255 64.4781 20.2534C64.4781 26.9814 69.198 32.4355 75.0203 32.4355Z" fill="#FDB4B4"/>
<path d="M65.8438 29.312C65.8438 29.312 57.9856 12.5418 65.0707 4.47156C72.1558 -3.5987 77.8433 1.7191 77.8433 1.7191L81.0911 1.56742C81.0911 1.56742 81.7685 4.52097 82.8607 2.92209C83.953 1.32321 85.9267 7.14613 85.9267 7.14613C89.59 14.7697 76.8908 16.4775 76.8908 16.4775C76.8908 16.4775 77.8078 19.853 76.8757 20.5599C75.9436 21.2668 73.4533 23.9261 73.4533 23.9261L71.2243 25.8714L69.8996 23.5392C69.8996 23.5392 68.516 22.2771 67.8169 22.8073C67.1179 23.3374 68.0794 30.3133 68.0794 30.3133L65.8438 29.312Z" fill="#2E2E41"/>
<path d="M53.197 152.688L49.1664 222.162L59.0749 222.55L72.1742 153.27L53.197 152.688Z" fill="#2E2E41"/>
<path d="M77.2123 152.3L73.1818 221.774L83.0902 222.162L96.1896 152.882L77.2123 152.3Z" fill="#2E2E41"/>
<path d="M50.7699 168.561L56.0446 92.893L47.9556 53.4912C47.2582 47.6341 50.4519 42.0921 55.3809 40.5809L63.2962 38.1543L66.7995 34.1058L74.7681 54.4404L79.7449 34.1213L83.6263 37.3832L95.1378 43.2519L95.1326 43.3893L93.2861 90.9865L97.4078 167.887L97.225 167.89L50.7699 168.561Z" fill="#E8E9EA"/>
<path d="M82.454 221.373L85.3231 231.27C85.3231 231.27 96.5474 233.033 96.722 237.049C96.8966 241.064 81.4676 238.74 72.433 239.264C63.3984 239.789 70.919 228.483 70.919 228.483L71.8817 221.987L82.454 221.373Z" fill="#2E2E41"/>
<path d="M59.024 220.66L61.893 230.557C61.893 230.557 73.1173 232.321 73.292 236.336C73.4667 240.352 58.0376 238.027 49.003 238.552C39.9684 239.077 47.489 227.771 47.489 227.771L48.4517 221.274L59.024 220.66Z" fill="#2E2E41"/>
<path d="M45.0265 128.374C44.9048 126.423 45.1894 124.466 45.8565 122.668L43.7153 102.371L52.1031 101.476L53.3718 122.162C54.2147 123.858 54.6939 125.762 54.7693 127.716C55.016 132.603 53.0349 136.711 50.3442 136.892C47.6535 137.074 45.2725 133.26 45.0265 128.374Z" fill="#FDB4B4"/>
<path d="M98.153 131.354C98.0497 129.401 98.3528 127.448 99.0368 125.658L97.0872 105.335L105.483 104.546L106.556 125.246C107.383 126.953 107.845 128.863 107.901 130.818C108.102 135.708 106.082 139.791 103.39 139.938C100.698 140.086 98.3529 136.242 98.153 131.354Z" fill="#FDB4B4"/>
<path d="M43.6808 120.234L43.6524 120.059L39.2809 92.9556L44.4463 48.8204C44.9072 44.8801 47.952 42.0416 51.3856 42.3588C53.1787 42.5247 54.7875 43.5075 55.916 45.1264C57.0444 46.7454 57.5327 48.7713 57.2907 50.8312L53.4031 83.932L55.8508 119.337L43.6808 120.234Z" fill="#E8E9EA"/>
<path d="M95.5624 119.598L86.7734 51.8053C86.3166 49.8175 86.584 47.7372 87.5302 45.9694C88.4765 44.2016 89.9677 42.9963 91.7294 42.5752C95.0998 41.7697 98.4278 44.1504 99.3075 47.9941L107.751 118.747L95.5624 119.598Z" fill="#E8E9EA"/>
<path d="M75.026 60.6374C75.6219 60.6374 76.105 60.0791 76.105 59.3905C76.105 58.7019 75.6219 58.1437 75.026 58.1437C74.4301 58.1437 73.947 58.7019 73.947 59.3905C73.947 60.0791 74.4301 60.6374 75.026 60.6374Z" fill="#D6D7D8"/>
<path d="M75.026 70.0779C75.6219 70.0779 76.105 69.5196 76.105 68.831C76.105 68.1424 75.6219 67.5841 75.026 67.5841C74.4301 67.5841 73.947 68.1424 73.947 68.831C73.947 69.5196 74.4301 70.0779 75.026 70.0779Z" fill="#D6D7D8"/>
<path d="M75.026 79.5183C75.6219 79.5183 76.105 78.9601 76.105 78.2715C76.105 77.5828 75.6219 77.0246 75.026 77.0246C74.4301 77.0246 73.947 77.5828 73.947 78.2715C73.947 78.9601 74.4301 79.5183 75.026 79.5183Z" fill="#D6D7D8"/>
<path d="M75.026 88.9588C75.6219 88.9588 76.105 88.4006 76.105 87.7119C76.105 87.0233 75.6219 86.4651 75.026 86.4651C74.4301 86.4651 73.947 87.0233 73.947 87.7119C73.947 88.4006 74.4301 88.9588 75.026 88.9588Z" fill="#D6D7D8"/>
<path d="M75.026 98.3993C75.6219 98.3993 76.105 97.841 76.105 97.1524C76.105 96.4638 75.6219 95.9055 75.026 95.9055C74.4301 95.9055 73.947 96.4638 73.947 97.1524C73.947 97.841 74.4301 98.3993 75.026 98.3993Z" fill="#D6D7D8"/>
<path d="M75.026 107.84C75.6219 107.84 76.105 107.281 76.105 106.593C76.105 105.904 75.6219 105.346 75.026 105.346C74.4301 105.346 73.947 105.904 73.947 106.593C73.947 107.281 74.4301 107.84 75.026 107.84Z" fill="#D6D7D8"/>
<path d="M75.026 117.28C75.6219 117.28 76.105 116.722 76.105 116.033C76.105 115.345 75.6219 114.786 75.026 114.786C74.4301 114.786 73.947 115.345 73.947 116.033C73.947 116.722 74.4301 117.28 75.026 117.28Z" fill="#D6D7D8"/>
<path d="M75.026 126.721C75.6219 126.721 76.105 126.162 76.105 125.474C76.105 124.785 75.6219 124.227 75.026 124.227C74.4301 124.227 73.947 124.785 73.947 125.474C73.947 126.162 74.4301 126.721 75.026 126.721Z" fill="#D6D7D8"/>
<path d="M75.0273 134.023L54.6111 130.879L54.2179 130.819L43.7837 103.018L37.5698 86.4657H53.7552L75.0273 134.023Z" fill="#6C63FF"/>
<path d="M156.885 28.5305L169.865 20.3136V43.7906H154.854L156.885 28.5305Z" fill="#2E2E41"/>
<path d="M172.648 33.7647L173.846 45.2905L165.213 65.1577L159.854 46.6666L162.373 33.3819L172.648 33.7647Z" fill="#FDB4B4"/>
<path d="M174.293 45.9785H159.386V66.7918H174.293V45.9785Z" fill="#6C63FF"/>
<path d="M186.59 156.2L190.483 223.29L180.914 223.665L168.264 156.762L186.59 156.2Z" fill="#2E2E41"/>
<path d="M163.399 155.825L167.291 222.915L157.723 223.29L145.073 156.387L163.399 155.825Z" fill="#2E2E41"/>
<path d="M196.699 170.429L196.471 170.428L135.516 170.198L135.571 169.949L151.242 98.1997L147.316 61.9905C146.573 55.1292 149.751 48.6439 155.226 45.853L157.202 44.8455L160.957 41.6902L165.76 61.3034L173.452 41.6749L176.841 45.5899L184.483 47.9329C189.246 49.393 192.332 54.7482 191.661 60.3893L191.653 60.4286L179.982 98.908L196.699 170.429Z" fill="#E8E9EA"/>
<path d="M158.337 222.528L168.547 223.121L169.476 229.394C169.476 229.394 176.739 240.312 168.014 239.805C159.29 239.299 144.39 241.543 144.559 237.666C144.727 233.788 155.567 232.085 155.567 232.085L158.337 222.528Z" fill="#2E2E41"/>
<path d="M180.963 221.84L191.173 222.433L192.102 228.706C192.102 228.706 199.365 239.624 190.64 239.117C181.916 238.611 167.016 240.855 167.185 236.978C167.353 233.1 178.193 231.397 178.193 231.397L180.963 221.84Z" fill="#2E2E41"/>
<path d="M190.312 132.032C190.075 136.751 187.776 140.433 185.177 140.258C182.579 140.083 180.666 136.116 180.904 131.397C180.977 129.51 181.439 127.671 182.253 126.033L183.479 106.057L191.579 106.921L189.511 126.522C190.155 128.258 190.43 130.148 190.312 132.032Z" fill="#FDB4B4"/>
<path d="M148.687 130.238C148.363 134.95 145.996 138.575 143.402 138.336C140.807 138.097 138.967 134.084 139.293 129.371C139.4 127.487 139.897 125.659 140.741 124.042L142.333 104.101L150.416 105.164L147.987 124.709C148.599 126.461 148.839 128.357 148.687 130.238Z" fill="#FDB4B4"/>
<path d="M191.617 124.179L179.853 123.311L179.867 123.108L182.217 89.1152L178.463 57.151C178.229 55.16 178.701 53.2016 179.792 51.6369C180.883 50.0719 182.438 49.1219 184.171 48.9615C187.49 48.6592 190.433 51.3987 190.879 55.2074L195.867 97.8292L195.862 97.861L191.617 124.179Z" fill="#E8E9EA"/>
<path d="M150.646 122.877L138.863 122.054L138.889 121.839L147.014 53.7446C147.868 50.0047 151.087 47.7044 154.343 48.4825C156.046 48.8895 157.487 50.0546 158.402 51.7635C159.317 53.4724 159.575 55.483 159.13 57.4253L150.646 122.877Z" fill="#E8E9EA"/>
<path d="M165.51 67.3078C166.086 67.3078 166.552 66.7687 166.552 66.1037C166.552 65.4387 166.086 64.8996 165.51 64.8996C164.935 64.8996 164.468 65.4387 164.468 66.1037C164.468 66.7687 164.935 67.3078 165.51 67.3078Z" fill="#D6D7D8"/>
<path d="M165.51 76.4243C166.086 76.4243 166.552 75.8852 166.552 75.2203C166.552 74.5553 166.086 74.0162 165.51 74.0162C164.935 74.0162 164.468 74.5553 164.468 75.2203C164.468 75.8852 164.935 76.4243 165.51 76.4243Z" fill="#D6D7D8"/>
<path d="M165.51 85.5409C166.086 85.5409 166.552 85.0018 166.552 84.3368C166.552 83.6718 166.086 83.1327 165.51 83.1327C164.935 83.1327 164.468 83.6718 164.468 84.3368C164.468 85.0018 164.935 85.5409 165.51 85.5409Z" fill="#D6D7D8"/>
<path d="M165.51 94.6574C166.086 94.6574 166.552 94.1183 166.552 93.4533C166.552 92.7883 166.086 92.2493 165.51 92.2493C164.935 92.2493 164.468 92.7883 164.468 93.4533C164.468 94.1183 164.935 94.6574 165.51 94.6574Z" fill="#D6D7D8"/>
<path d="M165.51 103.774C166.086 103.774 166.552 103.235 166.552 102.57C166.552 101.905 166.086 101.366 165.51 101.366C164.935 101.366 164.468 101.905 164.468 102.57C164.468 103.235 164.935 103.774 165.51 103.774Z" fill="#D6D7D8"/>
<path d="M165.51 112.89C166.086 112.89 166.552 112.351 166.552 111.686C166.552 111.021 166.086 110.482 165.51 110.482C164.935 110.482 164.468 111.021 164.468 111.686C164.468 112.351 164.935 112.89 165.51 112.89Z" fill="#D6D7D8"/>
<path d="M165.51 122.007C166.086 122.007 166.552 121.468 166.552 120.803C166.552 120.138 166.086 119.599 165.51 119.599C164.935 119.599 164.468 120.138 164.468 120.803C164.468 121.468 164.935 122.007 165.51 122.007Z" fill="#D6D7D8"/>
<path d="M165.51 131.124C166.086 131.124 166.552 130.584 166.552 129.919C166.552 129.254 166.086 128.715 165.51 128.715C164.935 128.715 164.468 129.254 164.468 129.919C164.468 130.584 164.935 131.124 165.51 131.124Z" fill="#D6D7D8"/>
<path d="M167.092 39.647C172.475 39.647 176.838 34.6047 176.838 28.3847C176.838 22.1648 172.475 17.1225 167.092 17.1225C161.709 17.1225 157.346 22.1648 157.346 28.3847C157.346 34.6047 161.709 39.647 167.092 39.647Z" fill="#FDB4B4"/>
<path d="M172.2 15.2374C172.667 16.335 171.926 17.7061 170.946 18.1675C169.966 18.629 168.858 18.442 167.813 18.2499C166.768 18.0578 165.659 17.8757 164.681 18.3453C163.417 18.953 162.704 20.4772 162.09 21.8917C160.943 24.5323 159.796 27.1729 158.65 29.8135C158.09 31.1037 157.517 32.4518 157.506 33.8952C157.486 36.5447 159.305 38.6621 160.284 41.0583C161.475 43.9757 161.377 47.551 160.027 50.3752C158.678 53.1994 156.112 55.2004 153.341 55.5896C152.612 55.692 151.84 55.6809 151.184 55.2981C150.529 54.9153 150.028 54.0794 150.15 53.2423C150.387 51.605 152.552 51.2224 152.95 49.6271C153.158 48.7943 152.79 47.905 152.294 47.2545C151.799 46.6041 151.172 46.0967 150.699 45.4239C149.609 43.8725 149.537 41.4776 150.53 39.8418C151.114 38.8805 152.017 38.1662 152.394 37.0758C152.716 36.1463 152.599 35.1015 152.477 34.1104C152.321 32.8369 152.164 31.5634 152.008 30.2899C151.825 28.8041 151.645 27.265 152.006 25.8234C152.833 22.5198 156.061 20.9682 157.954 18.3146C158.834 17.0815 159.426 15.5985 160.328 14.3876C161.843 12.3555 164.227 11.2345 166.539 11.4675C168.851 11.7005 171.032 13.2816 172.219 15.586" fill="#2E2E41"/>
<path d="M170.661 15.4457C170.185 15.6425 170.008 16.3592 170.145 16.9216C170.282 17.4841 170.641 17.9311 170.97 18.3753C174.685 23.3999 175.549 31 173.082 36.9627C172.426 38.5487 171.551 40.0413 171.198 41.751C170.94 42.995 170.954 44.3596 170.357 45.4366C169.749 46.533 168.544 47.2677 168.425 48.5627C168.348 49.3937 168.786 50.2009 169.374 50.6881C169.962 51.1753 170.679 51.3982 171.385 51.58C173.22 52.0524 175.096 52.3104 176.975 52.3485C177.588 52.361 178.221 52.3457 178.783 52.0635C179.345 51.7814 179.824 51.1696 179.831 50.4615C179.836 49.9049 179.558 49.3915 179.523 48.8365C179.417 47.1733 181.353 46.2885 181.731 44.6788C181.979 43.6205 181.49 42.5315 180.969 41.6149C180.449 40.6983 179.854 39.7358 179.867 38.6395C179.879 37.59 180.449 36.6657 180.671 35.6477C180.977 34.2397 180.601 32.7669 180.228 31.3807C179.91 30.2021 179.593 29.0235 179.275 27.8449C178.938 26.5921 178.601 25.3392 178.263 24.0864C177.674 21.8991 177.056 19.6485 175.781 17.8942C174.506 16.1399 172.394 14.9901 170.511 15.7064" fill="#2E2E41"/>
<path d="M177.302 59.0872L176.634 58.8623C178.026 53.3481 175.025 43.0579 174.995 42.9547L175.653 42.6951C175.781 43.1268 178.755 53.3316 177.302 59.0872Z" fill="#3F3C57"/>
<path d="M176.968 65.4208C178.574 65.4208 179.875 63.9171 179.875 62.0621C179.875 60.2072 178.574 58.7034 176.968 58.7034C175.363 58.7034 174.062 60.2072 174.062 62.0621C174.062 63.9171 175.363 65.4208 176.968 65.4208Z" fill="#3F3C57"/>
<path d="M157.87 73.953H156.108C155.915 73.953 155.76 73.773 155.76 73.551C155.76 73.3289 155.915 73.1489 156.108 73.1489H157.87C158.356 73.1489 158.812 72.9302 159.156 72.5329C159.498 72.1358 159.687 71.6079 159.686 71.0468L159.665 58.5005C159.665 55.7749 157.746 53.5582 155.388 53.5582C153.03 53.5582 151.112 55.7749 151.112 58.4997L151.133 70.2431C151.135 71.3888 151.943 72.328 152.935 72.3368L154.145 72.3474C154.337 72.3492 154.491 72.5304 154.49 72.7526C154.489 72.9734 154.333 73.1515 154.142 73.1515H154.139L152.929 73.1409C151.558 73.1287 150.44 71.8293 150.437 70.2447L150.416 58.5005C150.416 55.3316 152.646 52.7541 155.388 52.7541C158.13 52.7541 160.36 55.3316 160.36 58.4997L160.382 71.0453C160.383 71.8215 160.123 72.5516 159.648 73.1008C159.174 73.6503 158.542 73.953 157.87 73.953Z" fill="#3F3C57"/>
<path d="M154.142 74.1744C154.823 74.1744 155.375 73.5365 155.375 72.7495C155.375 71.9625 154.823 71.3245 154.142 71.3245C153.461 71.3245 152.909 71.9625 152.909 72.7495C152.909 73.5365 153.461 74.1744 154.142 74.1744Z" fill="#3F3C57"/>
<path d="M156.107 74.976C156.789 74.976 157.341 74.338 157.341 73.551C157.341 72.764 156.789 72.126 156.107 72.126C155.426 72.126 154.874 72.764 154.874 73.551C154.874 74.338 155.426 74.976 156.107 74.976Z" fill="#3F3C57"/>
<path d="M84.9182 53.0608L84.2502 52.8358C85.6419 47.3216 82.6748 36.8721 82.6446 36.7688L83.4795 37.4961C83.607 37.9278 86.3711 47.3051 84.9182 53.0608Z" fill="#3F3C57"/>
<path d="M61.4368 54.0404L62.1048 53.8155C60.7131 48.3013 63.714 38.0111 63.7442 37.9079L63.0297 38.461C62.9023 38.8926 59.984 48.2848 61.4368 54.0404Z" fill="#3F3C57"/>
<path d="M84.5843 59.3944C86.1895 59.3944 87.4908 57.8906 87.4908 56.0357C87.4908 54.1807 86.1895 52.677 84.5843 52.677C82.979 52.677 81.6777 54.1807 81.6777 56.0357C81.6777 57.8906 82.979 59.3944 84.5843 59.3944Z" fill="#3F3C57"/>
<path d="M64.5356 74.6952H62.7729C62.5805 74.6952 62.4249 74.5152 62.4249 74.2931C62.4249 74.0711 62.5805 73.8911 62.7729 73.8911H64.5356C65.0214 73.8911 65.4778 73.6724 65.8209 73.2751C66.1638 72.8779 66.3523 72.3501 66.3513 71.789L66.3299 59.2426C66.3299 56.5171 64.4116 54.3003 62.0536 54.3003C59.6956 54.3003 57.7769 56.517 57.7769 59.2418L57.7983 70.9853C57.8003 72.131 58.6086 73.0701 59.6001 73.079L60.81 73.0896C61.002 73.0913 61.1566 73.2725 61.1552 73.4947C61.1539 73.7156 60.9982 73.8936 60.8073 73.8936H60.8046L59.5947 73.883C58.2233 73.8709 57.1052 72.5715 57.1024 70.9869L57.081 59.2426C57.081 56.0738 59.3116 53.4962 62.0536 53.4962C64.7952 53.4962 67.0257 56.0738 67.0257 59.2418L67.0472 71.7874C67.0485 72.5636 66.7879 73.2937 66.3133 73.843C65.8389 74.3925 65.2073 74.6952 64.5356 74.6952Z" fill="#3F3C57"/>
<path d="M60.8074 74.9166C61.4885 74.9166 62.0406 74.2786 62.0406 73.4916C62.0406 72.7046 61.4885 72.0667 60.8074 72.0667C60.1264 72.0667 59.5742 72.7046 59.5742 73.4916C59.5742 74.2786 60.1264 74.9166 60.8074 74.9166Z" fill="#3F3C57"/>
<path d="M62.7728 75.7182C63.4538 75.7182 64.0059 75.0802 64.0059 74.2932C64.0059 73.5062 63.4538 72.8682 62.7728 72.8682C62.0917 72.8682 61.5396 73.5062 61.5396 74.2932C61.5396 75.0802 62.0917 75.7182 62.7728 75.7182Z" fill="#3F3C57"/>
</g>
<defs>
<clipPath id="clip0_5_102">
<rect width="241" height="240" fill="white"/>
</clipPath>
</defs>
</svg>
