<svg width="241" height="240" viewBox="0 0 241 240" fill="none" xmlns="http://www.w3.org/2000/svg">
<g clip-path="url(#clip0_5_226)">
<path d="M73.7636 111.3H42.7416V162.382H73.7636V111.3Z" fill="#CCCCCC"/>
<path d="M26.9488 239.212H11.1558L9.46367 219.278H28.6409L26.9488 239.212Z" fill="#E6E6E6"/>
<path d="M58.6617 224.773L58.1287 235.502C58.1046 235.988 58.1513 236.476 58.2656 236.933C58.3799 237.389 58.5593 237.805 58.7917 238.152C59.024 238.498 59.304 238.767 59.6128 238.941C59.9216 239.115 60.2522 239.19 60.5822 239.161L64.3246 238.827C64.498 238.812 64.6669 238.74 64.8194 238.617C64.9719 238.495 65.1042 238.324 65.207 238.118C65.3097 237.912 65.3803 237.675 65.4137 237.424C65.4472 237.173 65.4427 236.914 65.4006 236.666L63.3232 224.43L58.6617 224.773Z" fill="#E6E6E6"/>
<path d="M89.9644 231.118C94.3688 232.635 97.5151 234.792 99.582 237.71C100.318 238.742 101.281 239.35 102.296 239.424C103.592 239.524 104.652 239.31 105.449 238.786C105.653 238.654 105.829 238.443 105.959 238.176C106.09 237.91 106.169 237.597 106.189 237.27C106.213 236.938 106.177 236.602 106.083 236.298C105.989 235.993 105.842 235.732 105.657 235.539L95.2108 224.594L90.7737 227.208L89.7387 228.732C89.6266 228.897 89.5421 229.099 89.4917 229.32C89.4414 229.541 89.4265 229.777 89.4484 230.008C89.4703 230.239 89.5283 230.459 89.6178 230.652C89.7073 230.845 89.8259 231.004 89.9644 231.118Z" fill="#E6E6E6"/>
<path d="M76.4099 55.9385L46.5518 55.5314C46.6269 49.1272 47.6387 42.8385 49.8505 37.211C51.3031 33.515 51.2717 29.4928 50.9216 26.1041C50.3814 20.8746 51.6376 15.5241 54.4291 12.1952C56.5623 9.64678 59.2548 8.33496 61.9992 8.5068L62.579 8.54237C64.4675 8.65794 66.306 9.47032 67.9257 10.9049C69.5455 12.3395 70.8945 14.3503 71.849 16.7528C72.8192 19.3174 73.2104 22.27 72.9662 25.1836C72.777 27.9251 73.2298 30.6946 74.289 33.4904C76.1165 39.6296 76.5122 47.4854 76.4099 55.9385Z" fill="#2F2E41"/>
<path d="M96.3865 225.165L90.5265 227.416L61.991 135.87L63.7745 225.165H57.9145C51.6527 183.154 40.3474 134.669 45.4302 119.361L75.7492 116.735L96.3865 225.165Z" fill="#6C63FF"/>
<path d="M61.7362 40.5711C66.0983 40.5711 69.6344 35.3637 69.6344 28.9401C69.6344 22.5165 66.0983 17.3092 61.7362 17.3092C57.3741 17.3092 53.838 22.5165 53.838 28.9401C53.838 35.3637 57.3741 40.5711 61.7362 40.5711Z" fill="#FFB9B9"/>
<path d="M68.6153 50.326L55.6214 49.2004C56.8949 44.8964 57.4035 40.7518 56.8954 36.8191H66.5771C66.5551 39.8386 67.5755 45.0617 68.6153 50.326Z" fill="#FFB9B9"/>
<path d="M76.7683 120.111L48.2329 123.113L51.1628 48.6377L56.1311 46.5741L61.7362 48.45L67.3413 44.3228L70.9083 46.1991L76.7683 120.111Z" fill="#6C63FF"/>
<path d="M53.0736 173.764L33.5828 167.198C39.3785 138.896 49.8196 74.1499 46.4493 51.0764L56.6406 44.323L53.0736 173.764Z" fill="#E6E6E6"/>
<path d="M43.6467 91.9723L36.258 85.2188L42.5593 58.0419C43.262 55.2376 44.6082 52.883 46.3649 51.3853L48.4875 49.5756L47.2136 76.9646L43.6467 91.9723Z" fill="#E6E6E6"/>
<path d="M93.7113 167.573C87.5596 172.814 72.1823 175.736 65.4305 172.076C64.9337 146.505 63.9594 74.1735 67.0866 43.5726L78.297 50.326L77.2779 70.5864C71.9184 87.918 87.4812 148.284 93.7113 167.573Z" fill="#E6E6E6"/>
<path d="M92.8196 88.5957L85.9403 85.2189L76.7683 69.8358L78.2971 50.3259L93.5839 81.8421L92.8196 88.5957Z" fill="#E6E6E6"/>
<path d="M71.2605 103.199C71.3731 103.927 71.6769 104.559 72.1054 104.957C72.5339 105.355 73.0521 105.486 73.5463 105.322L79.3858 103.375L78.5418 97.8861L72.7023 99.8331C72.208 99.998 71.7784 100.445 71.5081 101.077C71.2377 101.708 71.1487 102.471 71.2605 103.199Z" fill="#FFB9B9"/>
<path d="M68.6153 25.9386C64.2283 23.2821 59.8955 23.0899 55.6214 25.5634L53.838 16.1836H70.144L68.6153 25.9386Z" fill="#2F2E41"/>
<path d="M76.5135 96.8497L79.8257 105.854C85.3967 103.566 90.2249 96.3528 94.8578 87.8451L93.5839 81.8421L85.6857 84.8436L76.5135 96.8497Z" fill="#E6E6E6"/>
<path d="M74.0931 78.2778H73.074C73.074 57.0516 70.1062 42.2594 67.214 42.2594L66.9592 40.7586C69.5529 40.7586 71.2065 46.915 72.137 52.0798C73.3984 59.0815 74.0931 68.3854 74.0931 78.2778Z" fill="#3F3D56"/>
<path d="M50.6532 73.0251H49.6341C49.6341 53.5853 52.6224 41.509 57.0227 41.509L56.768 43.0098C53.7243 43.0098 50.6532 52.2908 50.6532 73.0251Z" fill="#3F3D56"/>
<path d="M73.5836 82.4049C74.9907 82.4049 76.1314 80.7251 76.1314 78.653C76.1314 76.5808 74.9907 74.901 73.5836 74.901C72.1764 74.901 71.0357 76.5808 71.0357 78.653C71.0357 80.7251 72.1764 82.4049 73.5836 82.4049Z" fill="#3F3D56"/>
<path d="M46.5767 82.0297H45.5576C45.5576 76.6508 47.6149 72.2747 50.1436 72.2747V73.7755C48.1768 73.7755 46.5767 77.4783 46.5767 82.0297Z" fill="#3F3D56"/>
<path d="M54.7297 82.0297H53.7106C53.7106 77.4783 52.1105 73.7755 50.1436 73.7755V72.2747C52.6724 72.2747 54.7297 76.6508 54.7297 82.0297Z" fill="#3F3D56"/>
<path d="M54.2201 83.9056C54.783 83.9056 55.2393 83.2337 55.2393 82.4049C55.2393 81.576 54.783 80.9041 54.2201 80.9041C53.6573 80.9041 53.201 81.576 53.201 82.4049C53.201 83.2337 53.6573 83.9056 54.2201 83.9056Z" fill="#3F3D56"/>
<path d="M46.0671 83.9056C46.63 83.9056 47.0863 83.2337 47.0863 82.4049C47.0863 81.576 46.63 80.9041 46.0671 80.9041C45.5043 80.9041 45.048 81.576 45.048 82.4049C45.048 83.2337 45.5043 83.9056 46.0671 83.9056Z" fill="#3F3D56"/>
<path d="M33.328 68.6044L39.6866 70.2764L54.2201 100.708L46.4991 98.0325L33.328 68.6044Z" fill="#6C63FF"/>
<path d="M32.2002 68.2319C32.1033 68.234 32.0086 68.2745 31.9259 68.349C31.8433 68.4235 31.7757 68.5293 31.7304 68.6554C31.685 68.7816 31.6635 68.9233 31.6681 69.0658C31.6727 69.2084 31.7032 69.3465 31.7564 69.4657L45.3416 99.819C45.4174 99.9887 45.5345 100.109 45.6688 100.156L51.9896 102.346C52.0961 102.382 52.2078 102.371 52.3098 102.312C52.4117 102.253 52.4992 102.15 52.5605 102.017C52.6218 101.883 52.6541 101.726 52.6531 101.564C52.6521 101.403 52.6178 101.246 52.5548 101.114L37.6392 69.8831C37.5987 69.798 37.5473 69.7254 37.4878 69.6697C37.4283 69.6139 37.3619 69.5759 37.2925 69.5579L32.3021 68.2454C32.2684 68.2365 32.2343 68.232 32.2002 68.2319Z" fill="#3F3D56"/>
<path d="M40.6747 89.9342L41.0522 95.5346L47.0102 94.6636C47.5146 94.5899 47.9783 94.2242 48.2996 93.647C48.6208 93.0697 48.7731 92.3282 48.7231 91.5855C48.673 90.8429 48.4247 90.1599 48.0327 89.6869C47.6407 89.2139 47.1371 88.9895 46.6328 89.0632L40.6747 89.9342Z" fill="#FFB9B9"/>
<path d="M35.4938 89.2855C35.5025 91.1951 36.0233 93.0223 36.9428 94.3689C37.8623 95.7155 39.1059 96.4723 40.4027 96.4745H41.3824L42.0956 87.7218L36.1902 84.5912L35.4938 89.2855Z" fill="#E6E6E6"/>
<path d="M241 0H124.809V90.1198H241V0Z" fill="#E6E6E6"/>
<path d="M128.193 85.1362H237.616V4.98358H128.193V85.1362Z" fill="white"/>
<path d="M175.572 16.612H136.654V73.9232H175.572V16.612Z" fill="#3F3D56"/>
<path d="M166.265 42.7758C166.888 42.7758 167.393 42.032 167.393 41.1146C167.393 40.1971 166.888 39.4534 166.265 39.4534C165.642 39.4534 165.137 40.1971 165.137 41.1146C165.137 42.032 165.642 42.7758 166.265 42.7758Z" fill="#6C63FF"/>
<path d="M162.035 36.9616C162.658 36.9616 163.163 36.2178 163.163 35.3004C163.163 34.3829 162.658 33.6392 162.035 33.6392C161.412 33.6392 160.907 34.3829 160.907 35.3004C160.907 36.2178 161.412 36.9616 162.035 36.9616Z" fill="#6C63FF"/>
<path d="M161.471 41.1146C161.056 41.1147 160.649 41.2845 160.296 41.605C159.984 40.9157 159.618 40.2833 159.206 39.7213C159.211 39.6327 159.215 39.5439 159.215 39.4534C159.215 38.8015 159.085 38.1639 158.841 37.6201C158.597 37.0763 158.25 36.6504 157.842 36.3955C157.435 36.1405 156.985 36.0678 156.55 36.1864C156.115 36.3051 155.713 36.6098 155.394 37.0626C154.79 36.9363 154.177 36.9284 153.572 37.0391C153.572 37.0131 153.575 36.9878 153.575 36.9616C153.575 36.4055 153.481 35.8581 153.3 35.3696C153.12 34.8811 152.859 34.4672 152.542 34.1657C152.224 33.8642 151.861 33.6848 151.484 33.644C151.107 33.6032 150.73 33.7022 150.386 33.9321C150.042 34.1619 149.743 34.5152 149.516 34.9595C149.289 35.4038 149.141 35.925 149.086 36.4752C149.031 37.0254 149.071 37.5871 149.202 38.1087C149.333 38.6304 149.551 39.0953 149.835 39.4609C149.457 39.9374 149.115 40.471 148.813 41.053C148.535 40.7118 148.204 40.4743 147.85 40.3607C147.496 40.2471 147.129 40.2607 146.779 40.4004C146.43 40.54 146.108 40.8017 145.842 41.1631C145.575 41.5245 145.372 41.9752 145.248 42.4769C145.125 42.9786 145.086 43.5166 145.134 44.0455C145.182 44.5743 145.315 45.0784 145.523 45.5151C145.732 45.9518 146.008 46.3082 146.329 46.5543C146.651 46.8004 147.008 46.9288 147.37 46.9288L147.377 46.9282C147.374 47.0664 147.37 47.2046 147.37 47.3441C147.37 48.18 147.439 49.0129 147.574 49.8246C146.904 50.1962 146.308 50.8125 145.844 51.6158C145.379 52.419 145.061 53.3829 144.919 54.4169C144.777 55.4509 144.815 56.5212 145.031 57.5272C145.247 58.5333 145.632 59.4422 146.152 60.1685C146.672 60.8949 147.308 61.415 148.001 61.68C148.695 61.9449 149.423 61.9461 150.117 61.6833C150.81 61.4206 151.448 60.9026 151.968 60.1778C152.489 59.4531 152.876 58.5455 153.093 57.5401C154.662 57.9843 156.288 57.6293 157.702 56.5333C157.846 57.034 158.072 57.4748 158.359 57.817C158.646 58.1592 158.986 58.3924 159.348 58.4962C159.711 58.5999 160.085 58.571 160.439 58.4119C160.792 58.2528 161.113 57.9685 161.374 57.5839C161.635 57.1993 161.828 56.7262 161.936 56.206C162.044 55.6859 162.064 55.1347 161.994 54.6007C161.923 54.0668 161.765 53.5665 161.532 53.1437C161.3 52.7209 161.001 52.3887 160.661 52.176C161.149 50.8106 161.424 49.3011 161.464 47.7588L161.471 47.7594C162.069 47.7594 162.643 47.4093 163.066 46.7863C163.489 46.1632 163.727 45.3181 163.727 44.437C163.727 43.5558 163.489 42.7108 163.066 42.0877C162.643 41.4646 162.069 41.1146 161.471 41.1146Z" fill="#6C63FF"/>
<path d="M160.907 15.3661H149.626V17.8579H160.907V15.3661Z" fill="#E6E6E6"/>
<path d="M225.207 16.612H186.289V73.9232H225.207V16.612Z" fill="#3F3D56"/>
<path d="M213.137 55.4839C213.417 55.4839 213.644 55.1492 213.644 54.7364C213.644 54.3235 213.417 53.9888 213.137 53.9888C212.856 53.9888 212.629 54.3235 212.629 54.7364C212.629 55.1492 212.856 55.4839 213.137 55.4839Z" fill="#6C63FF"/>
<path d="M211.233 52.8675C211.513 52.8675 211.741 52.5328 211.741 52.12C211.741 51.7071 211.513 51.3725 211.233 51.3725C210.953 51.3725 210.725 51.7071 210.725 52.12C210.725 52.5328 210.953 52.8675 211.233 52.8675Z" fill="#6C63FF"/>
<path d="M210.979 54.7364C210.792 54.7364 210.609 54.8128 210.45 54.9571C210.31 54.6469 210.146 54.3623 209.96 54.1094C209.962 54.0695 209.964 54.0296 209.964 53.9888C209.964 53.6955 209.906 53.4086 209.796 53.1639C209.686 52.9192 209.53 52.7275 209.346 52.6128C209.163 52.498 208.961 52.4653 208.765 52.5187C208.569 52.5721 208.388 52.7092 208.245 52.913C207.973 52.8561 207.697 52.8526 207.425 52.9024C207.425 52.8907 207.426 52.8793 207.426 52.8675C207.426 52.6173 207.384 52.371 207.302 52.1511C207.221 51.9313 207.104 51.745 206.961 51.6094C206.818 51.4737 206.655 51.393 206.485 51.3746C206.316 51.3563 206.146 51.4008 205.991 51.5043C205.836 51.6077 205.702 51.7667 205.599 51.9666C205.497 52.1665 205.431 52.4011 205.406 52.6487C205.381 52.8963 205.399 53.149 205.458 53.3837C205.517 53.6185 205.615 53.8277 205.743 53.9922C205.573 54.2066 205.419 54.4468 205.283 54.7087C205.158 54.5551 205.009 54.4483 204.85 54.3971C204.691 54.346 204.525 54.3521 204.368 54.415C204.211 54.4778 204.066 54.5956 203.946 54.7582C203.826 54.9209 203.735 55.1237 203.679 55.3494C203.624 55.5752 203.606 55.8173 203.627 56.0553C203.649 56.2933 203.709 56.5201 203.803 56.7166C203.896 56.9131 204.021 57.0735 204.166 57.1843C204.31 57.295 204.471 57.3528 204.634 57.3528L204.637 57.3525C204.635 57.4147 204.634 57.4769 204.634 57.5397C204.634 57.9158 204.665 58.2906 204.726 58.6559C204.424 58.8231 204.156 59.1004 203.947 59.4619C203.738 59.8234 203.595 60.2571 203.531 60.7224C203.467 61.1877 203.484 61.6694 203.581 62.1221C203.678 62.5748 203.852 62.9838 204.086 63.3107C204.32 63.6375 204.606 63.8716 204.918 63.9908C205.23 64.11 205.557 64.1105 205.87 63.9923C206.182 63.8741 206.469 63.641 206.703 63.3148C206.937 62.9887 207.111 62.5803 207.209 62.1279C207.915 62.3278 208.647 62.168 209.283 61.6748C209.348 61.9001 209.45 62.0985 209.579 62.2525C209.708 62.4065 209.861 62.5114 210.024 62.5581C210.187 62.6048 210.356 62.5917 210.515 62.5202C210.674 62.4486 210.818 62.3207 210.936 62.1476C211.053 61.9745 211.14 61.7616 211.189 61.5275C211.237 61.2935 211.246 61.0454 211.214 60.8051C211.183 60.5649 211.111 60.3397 211.007 60.1495C210.902 59.9592 210.768 59.8097 210.615 59.714C210.834 59.0996 210.958 58.4203 210.976 57.7263L210.979 57.7265C211.249 57.7265 211.507 57.569 211.697 57.2886C211.888 57.0083 211.995 56.628 211.995 56.2315C211.995 55.8349 211.888 55.4547 211.697 55.1743C211.507 54.8939 211.249 54.7364 210.979 54.7364Z" fill="#6C63FF"/>
<path d="M217.119 41.298C217.4 41.298 217.627 40.9633 217.627 40.5505C217.627 40.1376 217.4 39.8029 217.119 39.8029C216.839 39.8029 216.612 40.1376 216.612 40.5505C216.612 40.9633 216.839 41.298 217.119 41.298Z" fill="#6C63FF"/>
<path d="M218.313 37.8905C218.594 37.8905 218.821 37.5558 218.821 37.1429C218.821 36.7301 218.594 36.3954 218.313 36.3954C218.033 36.3954 217.806 36.7301 217.806 37.1429C217.806 37.5558 218.033 37.8905 218.313 37.8905Z" fill="#6C63FF"/>
<path d="M216.534 37.4924C216.484 37.2276 216.384 36.9888 216.247 36.8025C216.412 36.5198 216.553 36.2093 216.668 35.8775C216.695 35.8697 216.721 35.8617 216.748 35.8507C216.94 35.7713 217.111 35.6107 217.241 35.3886C217.372 35.1666 217.455 34.893 217.48 34.602C217.505 34.3111 217.472 34.0156 217.384 33.7524C217.296 33.4892 217.157 33.27 216.985 33.1221C216.948 32.7213 216.876 32.3295 216.77 31.9567C216.777 31.9538 216.785 31.9521 216.793 31.949C216.956 31.8814 217.106 31.7545 217.228 31.5798C217.349 31.4051 217.439 31.1882 217.489 30.949C217.539 30.7098 217.548 30.456 217.514 30.2108C217.48 29.9656 217.404 29.7368 217.295 29.5455C217.185 29.3542 217.045 29.2065 216.887 29.1158C216.728 29.0252 216.557 28.9945 216.388 29.0267C216.22 29.0588 216.059 29.1528 215.922 29.2999C215.784 29.447 215.674 29.6425 215.601 29.8686C215.415 29.6858 215.216 29.5324 215.008 29.4109C215.075 29.1916 215.104 28.952 215.095 28.7124C215.085 28.4727 215.036 28.2401 214.952 28.0341C214.869 27.8281 214.752 27.6548 214.614 27.5289C214.475 27.4031 214.317 27.3283 214.155 27.3109C213.992 27.2935 213.829 27.334 213.679 27.4291C213.53 27.5241 213.398 27.6708 213.295 27.8568C213.192 28.0429 213.121 28.2627 213.087 28.4978C213.054 28.7328 213.06 28.9762 213.104 29.2073L213.105 29.2118C213.064 29.2262 213.023 29.2409 212.982 29.2579C212.736 29.36 212.5 29.5052 212.277 29.6907C212.086 29.3083 211.832 29.0037 211.539 28.8054C211.246 28.6072 210.924 28.5217 210.603 28.5572C210.281 28.5926 209.971 28.7478 209.701 29.0081C209.432 29.2684 209.211 29.6253 209.061 30.0453C208.911 30.4653 208.836 30.9347 208.842 31.4093C208.849 31.884 208.937 32.3483 209.099 32.7589C209.261 33.1694 209.491 33.5126 209.768 33.7563C210.045 34 210.359 34.1361 210.681 34.152C210.742 35.2072 211.044 36.2006 211.539 36.969C211.41 37.1222 211.308 37.3199 211.242 37.5447C211.176 37.7696 211.149 38.0148 211.163 38.2587C211.177 38.5026 211.231 38.7378 211.321 38.9437C211.41 39.1496 211.533 39.3199 211.678 39.4396C211.823 39.5593 211.986 39.6247 212.152 39.6301C212.318 39.6356 212.483 39.5809 212.631 39.4708C212.78 39.3608 212.908 39.1987 213.004 38.9989C213.1 38.7991 213.161 38.5676 213.182 38.3248C213.643 38.4699 214.121 38.4609 214.579 38.2983L214.58 38.3029C214.616 38.492 214.677 38.6688 214.759 38.8232C214.842 38.9776 214.944 39.1065 215.061 39.2026C215.177 39.2987 215.305 39.3601 215.437 39.3833C215.57 39.4065 215.704 39.3911 215.833 39.3378C215.961 39.2846 216.081 39.1946 216.186 39.073C216.291 38.9514 216.378 38.8006 216.443 38.6293C216.508 38.4579 216.55 38.2693 216.566 38.0742C216.581 37.8791 216.571 37.6814 216.534 37.4924Z" fill="#6C63FF"/>
<path d="M197.458 31.1397C197.738 31.1397 197.966 30.805 197.966 30.3922C197.966 29.9793 197.738 29.6447 197.458 29.6447C197.178 29.6447 196.95 29.9793 196.95 30.3922C196.95 30.805 197.178 31.1397 197.458 31.1397Z" fill="#6C63FF"/>
<path d="M194.862 31.446C195.143 31.446 195.37 31.1113 195.37 30.6984C195.37 30.2856 195.143 29.9509 194.862 29.9509C194.582 29.9509 194.355 30.2856 194.355 30.6984C194.355 31.1113 194.582 31.446 194.862 31.446Z" fill="#6C63FF"/>
<path d="M196.003 32.7385C195.877 32.9417 195.792 33.1923 195.757 33.4625C195.507 33.4057 195.254 33.3929 195.002 33.4244C194.983 33.3952 194.964 33.3661 194.944 33.3386C194.797 33.1407 194.614 33.0109 194.417 32.9653C194.22 32.9198 194.018 32.9606 193.837 33.0826C193.656 33.2047 193.503 33.4025 193.398 33.6515C193.293 33.9006 193.24 34.1897 193.245 34.4829C193.033 34.7403 192.846 35.0379 192.687 35.3678C192.681 35.3597 192.676 35.3509 192.67 35.343C192.545 35.174 192.393 35.0541 192.228 34.9942C192.063 34.9343 191.89 34.9364 191.726 35.0002C191.562 35.064 191.411 35.1876 191.287 35.3595C191.164 35.5314 191.072 35.7463 191.019 35.9843C190.967 36.2223 190.956 36.4759 190.987 36.7219C191.018 36.9678 191.091 37.1982 191.199 37.392C191.306 37.5858 191.445 37.7367 191.603 37.8309C191.76 37.9251 191.931 37.9596 192.1 37.9313C192.093 38.2607 192.109 38.5903 192.149 38.9146C191.987 38.9473 191.834 39.0369 191.701 39.1757C191.568 39.3144 191.459 39.4983 191.385 39.7118C191.31 39.9253 191.272 40.1621 191.272 40.4022C191.273 40.6423 191.313 40.8786 191.389 41.0911C191.465 41.3036 191.574 41.4861 191.708 41.6231C191.842 41.7601 191.996 41.8477 192.158 41.8783C192.32 41.9089 192.484 41.8818 192.637 41.7991C192.79 41.7165 192.927 41.5808 193.037 41.4034L193.039 41.3998C193.069 41.4435 193.099 41.4871 193.131 41.5294C193.32 41.783 193.528 42.0022 193.753 42.1822C193.633 42.6231 193.592 43.1015 193.632 43.5725C193.672 44.0435 193.793 44.4917 193.983 44.875C194.174 45.2583 194.427 45.5641 194.719 45.7638C195.012 45.9635 195.334 46.0505 195.656 46.0166C195.977 45.9827 196.288 45.829 196.558 45.5701C196.828 45.3111 197.049 44.9552 197.2 44.536C197.351 44.1167 197.428 43.6477 197.422 43.173C197.417 42.6983 197.329 42.2335 197.168 41.8222C197.745 41.189 198.158 40.2858 198.339 39.2612C198.496 39.3424 198.664 39.3657 198.829 39.3291C198.993 39.2924 199.149 39.1969 199.282 39.0509C199.415 38.905 199.522 38.713 199.594 38.4919C199.665 38.2707 199.698 38.0272 199.691 37.7827C199.683 37.5382 199.635 37.3002 199.55 37.0895C199.466 36.8788 199.347 36.702 199.205 36.5745C199.064 36.4469 198.903 36.3726 198.737 36.3581C198.571 36.3436 198.405 36.3892 198.254 36.4911C198.094 35.8377 197.837 35.2454 197.501 34.7579L197.503 34.7545C197.593 34.6096 197.663 34.4399 197.708 34.2552C197.754 34.0705 197.774 33.8744 197.768 33.678C197.762 33.4817 197.73 33.2891 197.674 33.1111C197.617 32.9331 197.537 32.7733 197.439 32.6408C197.34 32.5083 197.225 32.4057 197.099 32.3389C196.974 32.2721 196.841 32.2424 196.707 32.2515C196.574 32.2605 196.443 32.3082 196.322 32.3918C196.202 32.4754 196.093 32.5932 196.003 32.7385Z" fill="#6C63FF"/>
<path d="M210.542 15.3661H199.261V17.8579H210.542V15.3661Z" fill="#E6E6E6"/>
<path d="M7.10019 211.903C11.1668 219.923 19.6082 220.767 19.6082 220.767C19.6082 220.767 21.4564 208.609 17.3898 200.589C13.3233 192.569 4.88181 191.725 4.88181 191.725C4.88181 191.725 3.0336 203.883 7.10019 211.903Z" fill="#E6E6E6"/>
<path d="M27.8163 214.918C25.1328 220.21 19.5626 220.767 19.5626 220.767C19.5626 220.767 18.343 212.744 21.0264 207.452C23.7099 202.16 29.2801 201.603 29.2801 201.603C29.2801 201.603 30.4997 209.626 27.8163 214.918Z" fill="#E6E6E6"/>
<path d="M146.524 239.069H0V240H146.524V239.069Z" fill="#3F3D56"/>
</g>
<defs>
<clipPath id="clip0_5_226">
<rect width="241" height="240" fill="white"/>
</clipPath>
</defs>
</svg>
