<svg width="16" height="12" viewBox="0 0 16 12" fill="none" xmlns="http://www.w3.org/2000/svg">
<path d="M8.0245 2.61517C10.3204 2.61526 12.5285 3.46937 14.1925 5.00096C14.3178 5.11921 14.5181 5.11772 14.6415 4.99762L15.8392 3.82729C15.9017 3.76638 15.9366 3.68387 15.936 3.59802C15.9355 3.51217 15.8997 3.43006 15.8365 3.36986C11.4691 -0.682369 4.57914 -0.682369 0.21181 3.36986C0.148545 3.43002 0.112658 3.5121 0.112068 3.59795C0.111492 3.6838 0.146282 3.76634 0.208723 3.82729L1.40679 4.99762C1.53012 5.1179 1.73058 5.11939 1.8558 5.00096C3.51996 3.46927 5.72835 2.61516 8.0245 2.61517ZM8.0245 6.42275C9.28596 6.42267 10.5024 6.87663 11.4375 7.6964C11.5639 7.81275 11.7631 7.81022 11.8864 7.69072L13.0828 6.52039C13.1458 6.459 13.1808 6.37572 13.1799 6.28919C13.1789 6.20265 13.1423 6.12008 13.078 6.05995C10.2305 3.49554 5.82086 3.49554 2.9734 6.05995C2.90909 6.12008 2.87241 6.20269 2.87155 6.28926C2.87072 6.37582 2.9058 6.45909 2.96893 6.52039L4.16495 7.69072C4.28824 7.81022 4.48746 7.81275 4.61393 7.6964C5.54838 6.87717 6.76387 6.42325 8.0245 6.42275ZM10.3236 9.21582C10.3876 9.15503 10.4228 9.07136 10.421 8.98458C10.4192 8.89781 10.3805 8.81561 10.314 8.75739C8.99232 7.67512 7.05664 7.67512 5.735 8.75739C5.66846 8.81556 5.62966 8.89774 5.62776 8.98451C5.62586 9.07129 5.66104 9.15498 5.72498 9.21582L7.79481 11.2378C7.85548 11.2972 7.9382 11.3307 8.0245 11.3307C8.1108 11.3307 8.19349 11.2972 8.25415 11.2378L10.3236 9.21582Z" fill="black"/>
</svg>
